<svg width="26" height="26" viewBox="0 0 26 26" fill="none" xmlns="http://www.w3.org/2000/svg">
<g opacity="0.3">
<path d="M2.59909 22.5335C2.12069 22.5335 1.73242 22.1461 1.73242 21.6669C1.73242 20.2759 2.15276 8.27946 16.4658 7.81406V4.33352C16.4658 3.98339 16.6772 3.66619 17.0005 3.53272C17.3246 3.39752 17.6973 3.47292 17.9452 3.72079L24.0118 9.78746C24.3507 10.1263 24.3507 10.6741 24.0118 11.0129L17.9452 17.0796C17.6973 17.3275 17.3246 17.402 17.0005 17.2677C16.6772 17.1342 16.4658 16.817 16.4658 16.4669V13.0123C11.1618 13.1605 7.25222 14.6798 5.12715 17.4306C3.48482 19.5548 3.46576 21.6461 3.46576 21.6669C3.46576 22.1461 3.07749 22.5335 2.59909 22.5335Z" fill="#324064"/>
</g>
</svg>
