<svg width="26" height="26" viewBox="0 0 26 26" fill="none" xmlns="http://www.w3.org/2000/svg">
<path d="M5.30898 17.0354C4.94787 16.3854 4.6951 15.7309 4.55065 15.0718C4.40621 14.4128 4.33398 13.7402 4.33398 13.0541C4.33398 10.6889 5.18711 8.65309 6.89336 6.94684C8.59961 5.24059 10.6354 4.38747 13.0007 4.38747H14.1652L11.9986 2.2208L13.0548 1.16455L17.0902 5.19997L13.0548 9.23538L11.9715 8.15205L14.1111 6.01247H13.0007C11.0687 6.01247 9.41211 6.70309 8.03086 8.08434C6.64961 9.46559 5.95898 11.1222 5.95898 13.0541C5.95898 13.5777 6.00864 14.0743 6.10794 14.5437C6.20725 15.0132 6.32912 15.4555 6.47357 15.8708L5.30898 17.0354ZM12.8923 24.9166L8.8569 20.8812L12.8923 16.8458L13.9486 17.9021L11.7819 20.0687H13.0007C14.9326 20.0687 16.5892 19.3781 17.9704 17.9968C19.3517 16.6156 20.0423 14.959 20.0423 13.0271C20.0423 12.5034 19.9972 12.0069 19.9069 11.5375C19.8166 11.068 19.6812 10.6257 19.5007 10.2104L20.6652 9.0458C21.0263 9.6958 21.2836 10.3503 21.4371 11.0093C21.5906 11.6684 21.6673 12.3409 21.6673 13.0271C21.6673 15.3923 20.8142 17.4281 19.1079 19.1343C17.4017 20.8406 15.3659 21.6937 13.0007 21.6937H11.7819L13.9486 23.8604L12.8923 24.9166Z" fill="#E09508"/>
</svg>
