<svg width="95" height="23" viewBox="0 0 95 23" fill="none" xmlns="http://www.w3.org/2000/svg">
<path d="M26.854 14.0508C27.2033 14.0508 27.5626 14.2105 27.9318 14.5398C28.7302 15.2383 29.6582 15.5876 30.7161 15.5876C31.724 15.5876 32.6321 15.2683 33.4404 14.6296C34.2488 13.9909 34.7877 13.1826 35.0471 12.2146H30.2869C29.9975 12.2146 29.7381 12.1048 29.4886 11.8952C29.2391 11.6857 29.1194 11.4162 29.1194 11.0969C29.1194 10.7775 29.2291 10.4981 29.4587 10.2886C29.6782 10.069 29.9576 9.95924 30.2969 9.95924H35.097C34.8475 8.95132 34.3186 8.12302 33.5103 7.46438C32.702 6.81572 31.7739 6.4864 30.726 6.4864C29.778 6.4864 28.9198 6.76582 28.1513 7.32467C27.8619 7.56418 27.5825 7.68393 27.3131 7.68393C27.0037 7.68393 26.7243 7.56418 26.4948 7.32467C26.2553 7.08516 26.1355 6.81572 26.1355 6.51634C26.1355 6.17704 26.2553 5.91757 26.4948 5.71798C27.6224 4.72004 29.0495 4.22107 30.746 4.22107C32.6521 4.22107 34.2588 4.87971 35.576 6.197C36.1948 6.80574 36.6738 7.53424 37.0031 8.39247C37.3324 9.24072 37.5021 10.1289 37.5021 11.047C37.5021 13.003 36.8534 14.6196 35.5661 15.917C34.2588 17.2243 32.6521 17.8729 30.756 17.8729C29.8578 17.8729 28.9996 17.7033 28.1613 17.364C27.3231 17.0247 26.6045 16.5357 25.9758 15.897C25.8162 15.7373 25.7363 15.5178 25.7363 15.2483C25.7363 14.939 25.8561 14.6595 26.0956 14.43C26.3052 14.1706 26.5646 14.0508 26.854 14.0508ZM51.1839 4.77992C51.3834 4.43064 51.6728 4.24103 52.062 4.20111C52.4213 4.20111 52.7207 4.31088 52.9702 4.52045C53.2097 4.73002 53.3294 4.99946 53.3294 5.31881V16.8151C53.3294 17.1245 53.2197 17.3739 53.0001 17.5536C52.7806 17.7332 52.5011 17.823 52.1718 17.823C51.8525 17.823 51.583 17.7332 51.3735 17.5636C51.1639 17.3939 51.0541 17.1444 51.0342 16.8351V9.31057L47.6012 14.6695C47.5414 14.7893 47.4116 14.939 47.222 15.0887C47.0324 15.2483 46.8029 15.3182 46.5434 15.3182C46.1442 15.3182 45.8049 15.1086 45.5355 14.6995L42.0826 9.31057V16.845C42.0726 17.1444 41.9529 17.3839 41.7333 17.5536C41.5138 17.7232 41.2543 17.813 40.945 17.813C40.6356 17.813 40.3662 17.7232 40.1466 17.5336C39.9271 17.344 39.8073 17.1145 39.8073 16.8251V5.34874C39.8073 5.03938 39.9071 4.76994 40.1167 4.54041C40.3262 4.31088 40.5957 4.19113 40.925 4.19113C41.3641 4.19113 41.7134 4.41068 41.9928 4.83979L46.5434 12.2146L51.1839 4.77992ZM65.8736 4.29093C66.1729 4.29093 66.4124 4.39072 66.6021 4.59031C66.7917 4.7899 66.8815 5.03938 66.8815 5.33876V16.865C66.8815 17.1045 66.7717 17.324 66.5621 17.5137C66.3526 17.7132 66.0731 17.813 65.7239 17.813C65.3746 17.813 65.0952 17.7132 64.8956 17.5236C64.686 17.334 64.5862 17.1145 64.5862 16.865V6.60615H58.8979V16.865C58.8979 17.1245 58.7882 17.354 58.5786 17.5336C58.369 17.7232 58.0896 17.813 57.7403 17.813C57.421 17.813 57.1416 17.7232 56.922 17.5536C56.7025 17.3839 56.5827 17.1544 56.5827 16.865V5.33876C56.5827 5.06932 56.6925 4.81983 56.912 4.61027C57.1316 4.4007 57.3711 4.29093 57.6505 4.29093H65.8736ZM80.3537 4.66016C80.5633 4.84977 80.673 5.10924 80.673 5.44854V16.5856C80.673 16.9049 80.5633 17.1843 80.3437 17.3939C80.1242 17.6135 79.8547 17.7232 79.5354 17.7232C79.1961 17.7232 78.9266 17.6135 78.7171 17.4039C78.5075 17.1943 78.3977 16.9149 78.3977 16.5856V8.82158L72.2504 17.2742C72.0907 17.4937 71.8712 17.6434 71.6017 17.7033C71.3323 17.7631 71.0728 17.7332 70.8233 17.6135C70.6138 17.5137 70.4342 17.364 70.3044 17.1544C70.1647 16.9448 70.0949 16.7353 70.0949 16.5057V5.27889C70.0949 4.96953 70.1946 4.73002 70.4042 4.55039C70.6138 4.38074 70.9032 4.29093 71.2724 4.29093C71.5918 4.29093 71.8612 4.38074 72.0608 4.56037C72.2704 4.74 72.3702 4.97951 72.3702 5.27889V13.1726L78.4875 4.7899C78.6871 4.49051 78.9765 4.33084 79.3558 4.30091C79.7549 4.28095 80.0843 4.4007 80.3537 4.66016ZM89.884 15.5777C90.9119 15.5777 91.84 15.2284 92.6683 14.5298C92.9876 14.2105 93.3469 14.0408 93.7361 14.0408C94.0255 14.0408 94.285 14.1606 94.5345 14.3901C94.7839 14.6196 94.9037 14.8891 94.9037 15.1984C94.9037 15.4679 94.8139 15.6974 94.6442 15.8671C93.3269 17.1843 91.7302 17.843 89.8641 17.843C87.9979 17.843 86.4012 17.1843 85.0839 15.8671C83.7766 14.5897 83.128 12.973 83.128 11.0171C83.128 10.1089 83.2976 9.23074 83.6269 8.38249C83.9662 7.53424 84.4453 6.80574 85.064 6.17704C86.3912 4.84977 87.9979 4.18115 89.8641 4.18115C91.5805 4.18115 92.9976 4.68012 94.0954 5.67807C94.3448 5.89761 94.4646 6.17704 94.4646 6.51634C94.4646 6.80574 94.3548 7.0652 94.1353 7.30471C93.9157 7.54422 93.6563 7.66397 93.3569 7.66397C93.0874 7.66397 92.7781 7.5542 92.4388 7.34463C91.5207 6.75584 90.6624 6.46644 89.8641 6.46644C88.6366 6.46644 87.5788 6.91551 86.7106 7.81366C85.8424 8.71181 85.4033 9.76963 85.4033 11.0071C85.4033 12.2545 85.8424 13.3223 86.7106 14.2304C87.6087 15.1286 88.6566 15.5777 89.884 15.5777Z" fill="#324064"/>
<path d="M9.7793 12.6739L22.7525 0L15.3678 22.2541L9.7793 12.6739Z" fill="#0097D1"/>
<path d="M9.87963 12.7735L22.7531 0.0996094L0 6.88561L9.87963 12.7735Z" fill="#0EB1F2"/>
<path d="M2.99414 19.4596L8.58262 13.8711L11.2771 18.5614L2.99414 19.4596Z" fill="#0097D1"/>
<path d="M3.09375 19.4599L8.58243 13.9712L3.9919 11.0771L3.09375 19.4599Z" fill="#0EB1F2"/>
</svg>
