<svg width="38" height="38" viewBox="0 0 38 38" fill="none" xmlns="http://www.w3.org/2000/svg">
<path d="M13.1719 4.2334C8.24956 4.2334 4.23438 8.24858 4.23438 13.1709V24.8285C4.23438 29.7502 8.24942 33.766 13.1719 33.766H24.8295C29.7513 33.766 33.767 29.7503 33.767 24.8285V13.1709C33.767 8.24844 29.7511 4.2334 24.8295 4.2334H13.1719ZM13.1719 6.56492H24.8295C28.4909 6.56492 31.4355 9.50869 31.4355 13.1709V24.8285C31.4355 28.4898 28.4908 31.4345 24.8295 31.4345H13.1719C9.50967 31.4345 6.5659 28.49 6.5659 24.8285V13.1709C6.5659 9.50855 9.50953 6.56492 13.1719 6.56492ZM26.7724 9.67362C25.9136 9.67362 25.2181 10.3692 25.2181 11.228C25.2181 12.0867 25.9136 12.7823 26.7724 12.7823C27.6312 12.7823 28.3268 12.0867 28.3268 11.228C28.3268 10.3692 27.6312 9.67362 26.7724 9.67362ZM19.0007 11.228C14.7225 11.228 11.2289 14.7215 11.2289 18.9997C11.2289 23.2779 14.7225 26.7714 19.0007 26.7714C23.2789 26.7714 26.7724 23.2779 26.7724 18.9997C26.7724 14.7215 23.2789 11.228 19.0007 11.228ZM19.0007 13.5595C22.0186 13.5595 24.4409 15.9818 24.4409 18.9997C24.4409 22.0176 22.0186 24.4399 19.0007 24.4399C15.9828 24.4399 13.5605 22.0176 13.5605 18.9997C13.5605 15.9818 15.9828 13.5595 19.0007 13.5595Z" fill="#324064"/>
</svg>
