<svg width="26" height="26" viewBox="0 0 26 26" fill="none" xmlns="http://www.w3.org/2000/svg">
<path d="M13.0001 1.73328C7.73513 1.73328 3.4668 6.00161 3.4668 11.2666C3.4668 17.5361 9.6652 20.5373 10.4417 21.2359C11.2347 21.9491 11.8899 23.5481 12.1543 24.4547C12.2825 24.8949 12.6431 25.1177 13.0001 25.1272C13.3581 25.1168 13.7177 24.8941 13.846 24.4547C14.1103 23.5481 14.7655 21.95 15.5585 21.2359C16.3351 20.5373 22.5335 17.5361 22.5335 11.2666C22.5335 6.00161 18.2651 1.73328 13.0001 1.73328ZM13.0001 13.8666C11.5641 13.8666 10.4001 12.7027 10.4001 11.2666C10.4001 9.83054 11.5641 8.66661 13.0001 8.66661C14.4362 8.66661 15.6001 9.83054 15.6001 11.2666C15.6001 12.7027 14.4362 13.8666 13.0001 13.8666Z" fill="#E09508"/>
</svg>
