<svg width="26" height="26" viewBox="0 0 26 26" fill="none" xmlns="http://www.w3.org/2000/svg">
<path d="M12.9991 1.04004C6.4045 1.04004 1.03914 6.4054 1.03914 13C1.03914 15.0592 1.5711 17.0841 2.5799 18.8708L1.05838 24.2996C1.00846 24.478 1.05682 24.6694 1.18578 24.802C1.2851 24.9044 1.4203 24.96 1.55914 24.96C1.60074 24.96 1.64286 24.9548 1.68394 24.945L7.34986 23.5415C9.0799 24.4702 11.0283 24.96 12.9991 24.96C19.5938 24.96 24.9591 19.5947 24.9591 13C24.9591 6.4054 19.5938 1.04004 12.9991 1.04004ZM19.0155 17.2204C18.7597 17.9286 17.5325 18.575 16.9428 18.6618C16.4135 18.7393 15.7437 18.7726 15.0084 18.5417C14.5628 18.4013 13.9908 18.2151 13.2581 17.9026C10.1781 16.5891 8.16678 13.5268 8.01286 13.3245C7.85946 13.1222 6.75914 11.6808 6.75914 10.1889C6.75914 8.69704 7.55214 7.96332 7.83398 7.65964C8.11582 7.35596 8.4481 7.28004 8.65298 7.28004C8.85786 7.28004 9.06222 7.28264 9.24162 7.29096C9.43038 7.30032 9.68362 7.21972 9.9327 7.81148C10.1885 8.41884 10.8027 9.91072 10.8786 10.0631C10.9555 10.2149 11.0065 10.3922 10.9046 10.5945C10.8027 10.7968 10.7517 10.9232 10.5978 11.1005C10.4439 11.2778 10.2754 11.4957 10.1371 11.6319C9.98314 11.7832 9.8235 11.947 10.0024 12.2507C10.1813 12.5544 10.7975 13.5471 11.7106 14.351C12.8832 15.3837 13.8727 15.704 14.1795 15.8559C14.4863 16.0077 14.6657 15.9822 14.8446 15.78C15.0235 15.5772 15.6121 14.8944 15.8165 14.5912C16.0209 14.2881 16.2257 14.338 16.5076 14.4394C16.7894 14.5403 18.299 15.2735 18.6058 15.4253C18.9126 15.5772 19.1175 15.6531 19.1944 15.7794C19.2714 15.9053 19.2714 16.5126 19.0155 17.2204Z" fill="#E09508"/>
</svg>
