<svg width="296" height="32" viewBox="0 0 296 32" fill="none" xmlns="http://www.w3.org/2000/svg">
<path d="M19.86 7.66C19.86 7.16 19.79 6.67 19.65 6.19C19.53 5.69 19.33 5.25 19.05 4.87C18.79 4.47 18.45 4.15 18.03 3.91C17.63 3.67 17.15 3.55 16.59 3.55C15.89 3.55 15.2 3.72 14.52 4.06C15.2 4.82 15.73 5.63 16.11 6.49C16.49 7.35 16.68 8.29 16.68 9.31C16.68 10.05 16.54 10.83 16.26 11.65C15.98 12.45 15.58 13.19 15.06 13.87C14.56 14.55 13.96 15.11 13.26 15.55C12.58 15.99 11.83 16.21 11.01 16.21C10.49 16.21 10.04 16.12 9.66 15.94C9.3 15.74 8.99 15.49 8.73 15.19C8.47 14.87 8.28 14.5 8.16 14.08C8.04 13.66 7.98 13.21 7.98 12.73C7.98 11.85 8.15 10.99 8.49 10.15C8.83 9.29 9.27 8.48 9.81 7.72C10.35 6.94 10.96 6.23 11.64 5.59C12.32 4.95 13.01 4.4 13.71 3.94C13.49 3.74 13.25 3.57 12.99 3.43C12.75 3.27 12.49 3.12 12.21 2.98C11.19 3.76 10.21 4.7 9.27 5.8C8.33 6.9 7.49 8.08 6.75 9.34C6.01 10.6 5.42 11.91 4.98 13.27C4.54 14.63 4.32 15.97 4.32 17.29C4.32 17.87 4.39 18.43 4.53 18.97C4.67 19.49 4.89 19.95 5.19 20.35C5.49 20.75 5.87 21.07 6.33 21.31C6.79 21.53 7.34 21.64 7.98 21.64C8.92 21.64 9.86 21.42 10.8 20.98C11.76 20.54 12.68 19.95 13.56 19.21C14.44 18.47 15.26 17.62 16.02 16.66C16.8 15.7 17.47 14.7 18.03 13.66C18.59 12.62 19.03 11.58 19.35 10.54C19.69 9.5 19.86 8.54 19.86 7.66ZM15.6 8.35C15.6 7.57 15.48 6.83 15.24 6.13C15.02 5.41 14.62 4.78 14.04 4.24C13.34 4.66 12.65 5.18 11.97 5.8C11.31 6.42 10.71 7.11 10.17 7.87C9.65 8.61 9.23 9.4 8.91 10.24C8.59 11.06 8.43 11.9 8.43 12.76C8.43 13.1 8.48 13.44 8.58 13.78C8.68 14.1 8.83 14.39 9.03 14.65C9.23 14.91 9.47 15.12 9.75 15.28C10.05 15.44 10.38 15.52 10.74 15.52C11.52 15.52 12.21 15.27 12.81 14.77C13.41 14.25 13.91 13.62 14.31 12.88C14.73 12.14 15.05 11.36 15.27 10.54C15.49 9.72 15.6 8.99 15.6 8.35ZM21.81 3.79C21.81 3.83 21.81 3.91 21.81 4.03C21.81 4.15 21.8 4.28 21.78 4.42C21.76 4.54 21.72 4.65 21.66 4.75C21.62 4.85 21.56 4.91 21.48 4.93C21.34 4.85 21.29 4.69 21.33 4.45C21.37 4.19 21.39 4 21.39 3.88C21.39 2.8 21.07 2.01 20.43 1.51C19.79 0.989999 18.96 0.729998 17.94 0.729998C16.98 0.729998 16.05 0.919998 15.15 1.3C14.25 1.68 13.42 2.15 12.66 2.71C12.92 2.87 13.17 3.03 13.41 3.19C13.67 3.35 13.91 3.53 14.13 3.73C14.47 3.57 14.83 3.43 15.21 3.31C15.59 3.19 15.98 3.13 16.38 3.13C17.08 3.13 17.67 3.26 18.15 3.52C18.65 3.78 19.05 4.13 19.35 4.57C19.67 4.99 19.9 5.49 20.04 6.07C20.18 6.65 20.25 7.25 20.25 7.87C20.25 8.87 20.07 9.92 19.71 11.02C19.37 12.1 18.89 13.17 18.27 14.23C17.67 15.29 16.95 16.3 16.11 17.26C15.29 18.22 14.4 19.07 13.44 19.81C12.5 20.53 11.51 21.11 10.47 21.55C9.43 21.97 8.39 22.18 7.35 22.18C6.51 22.18 5.78 22.02 5.16 21.7C4.54 21.36 4.03 20.92 3.63 20.38C3.23 19.82 2.93 19.18 2.73 18.46C2.55 17.74 2.46 17 2.46 16.24C2.46 14.86 2.72 13.52 3.24 12.22C3.78 10.9 4.47 9.66 5.31 8.5C6.15 7.32 7.09 6.24 8.13 5.26C9.19 4.26 10.25 3.38 11.31 2.62C10.97 2.52 10.62 2.45 10.26 2.41C9.9 2.35 9.54 2.32 9.18 2.32C8.24 2.32 7.34 2.47 6.48 2.77C5.62 3.07 4.83 3.49 4.11 4.03C3.41 4.55 2.79 5.18 2.25 5.92C1.73 6.66 1.33 7.47 1.05 8.35C1.01 8.45 0.96 8.64 0.9 8.92C0.86 9.2 0.81 9.49 0.75 9.79C0.69 10.09 0.63 10.36 0.57 10.6C0.51 10.84 0.45 10.96 0.39 10.96C0.35 10.92 0.32 10.86 0.3 10.78C0.28 10.7 0.27 10.63 0.27 10.57C0.27 9.41 0.51 8.31 0.99 7.27C1.49 6.21 2.14 5.28 2.94 4.48C3.76 3.68 4.7 3.05 5.76 2.59C6.82 2.13 7.93 1.9 9.09 1.9C9.55 1.9 9.99 1.94 10.41 2.02C10.85 2.1 11.28 2.2 11.7 2.32C12.6 1.8 13.57 1.33 14.61 0.91C15.65 0.469999 16.71 0.249999 17.79 0.249999C18.35 0.249999 18.87 0.319999 19.35 0.459998C19.85 0.599999 20.28 0.819999 20.64 1.12C21 1.42 21.28 1.79 21.48 2.23C21.7 2.67 21.81 3.19 21.81 3.79ZM37.5954 4.87C37.5954 4.63 37.5154 4.43 37.3554 4.27C37.2154 4.09 37.0154 4 36.7554 4C36.3154 4 35.8554 4.2 35.3754 4.6C34.8954 4.98 34.4154 5.48 33.9354 6.1C33.4554 6.7 32.9854 7.38 32.5254 8.14C32.0854 8.88 31.6654 9.62 31.2654 10.36C30.8854 11.08 30.5454 11.75 30.2454 12.37C29.9454 12.99 29.7154 13.47 29.5554 13.81C29.9154 13.57 30.3654 13.25 30.9054 12.85C31.4454 12.43 32.0154 11.97 32.6154 11.47C33.2154 10.95 33.8054 10.4 34.3854 9.82C34.9854 9.24 35.5154 8.66 35.9754 8.08C36.4554 7.5 36.8454 6.94 37.1454 6.4C37.4454 5.84 37.5954 5.33 37.5954 4.87ZM38.2554 5.02C38.2554 5.52 38.0854 6.07 37.7454 6.67C37.4054 7.27 36.9654 7.88 36.4254 8.5C35.8854 9.12 35.2754 9.74 34.5954 10.36C33.9154 10.98 33.2354 11.57 32.5554 12.13C31.8954 12.69 31.2554 13.2 30.6354 13.66C30.0354 14.1 29.5354 14.47 29.1354 14.77C29.0754 14.91 28.9754 15.16 28.8354 15.52C28.6954 15.86 28.5354 16.26 28.3554 16.72C28.1754 17.16 27.9854 17.63 27.7854 18.13C27.5854 18.63 27.4054 19.1 27.2454 19.54C27.0854 19.96 26.9454 20.32 26.8254 20.62C26.7254 20.92 26.6754 21.09 26.6754 21.13C26.6754 21.39 26.7654 21.56 26.9454 21.64C27.1454 21.7 27.3554 21.73 27.5754 21.73C28.1554 21.73 28.6854 21.6 29.1654 21.34C29.6454 21.06 30.0854 20.72 30.4854 20.32C31.0654 19.72 31.4754 19.03 31.7154 18.25C31.9554 17.47 32.1354 16.73 32.2554 16.03C32.3954 15.33 32.5254 14.74 32.6454 14.26C32.7854 13.78 33.0354 13.54 33.3954 13.54C33.7554 13.54 33.9854 13.67 34.0854 13.93C34.2054 14.19 34.2654 14.47 34.2654 14.77C34.2654 15.61 34.0654 16.41 33.6654 17.17C33.2854 17.93 32.8554 18.63 32.3754 19.27C32.5154 19.33 32.6854 19.36 32.8854 19.36C33.1654 19.36 33.4354 19.3 33.6954 19.18C33.9754 19.06 34.2454 18.91 34.5054 18.73C34.7654 18.53 35.0054 18.33 35.2254 18.13C35.4454 17.91 35.6454 17.71 35.8254 17.53L35.9454 17.5L36.0354 17.56C36.0554 17.6 36.0654 17.68 36.0654 17.8C35.4854 18.5 34.8854 19.03 34.2654 19.39C33.6654 19.73 32.8954 19.84 31.9554 19.72C31.3554 20.36 30.6654 20.93 29.8854 21.43C29.1054 21.91 28.2554 22.15 27.3354 22.15C26.7354 22.15 26.2954 21.97 26.0154 21.61C25.7354 21.25 25.5954 20.79 25.5954 20.23C25.5954 20.05 25.6654 19.74 25.8054 19.3C25.9654 18.86 26.1454 18.39 26.3454 17.89C26.5454 17.39 26.7454 16.92 26.9454 16.48C27.1454 16.02 27.2954 15.68 27.3954 15.46C27.2954 15.56 27.0854 15.77 26.7654 16.09C26.4654 16.39 26.1354 16.71 25.7754 17.05C25.4354 17.39 25.1054 17.7 24.7854 17.98C24.4854 18.24 24.3054 18.38 24.2454 18.4L24.1254 18.19C24.1254 18.11 24.3054 17.9 24.6654 17.56C25.0454 17.2 25.4654 16.81 25.9254 16.39C26.3854 15.95 26.8154 15.53 27.2154 15.13C27.6354 14.73 27.8954 14.45 27.9954 14.29C28.2154 13.95 28.4154 13.58 28.5954 13.18C28.7754 12.78 28.9654 12.39 29.1654 12.01C29.7454 10.95 30.3654 9.91 31.0254 8.89C31.6854 7.87 32.4054 6.89 33.1854 5.95C33.4054 5.69 33.6454 5.42 33.9054 5.14C34.1854 4.86 34.4754 4.61 34.7754 4.39C35.0954 4.15 35.4254 3.96 35.7654 3.82C36.1054 3.66 36.4654 3.58 36.8454 3.58C37.2454 3.58 37.5754 3.72 37.8354 4C38.1154 4.28 38.2554 4.62 38.2554 5.02ZM42.844 14.5C42.844 14.34 42.794 14.2 42.694 14.08C42.594 13.96 42.464 13.9 42.304 13.9C41.844 13.9 41.384 14.08 40.924 14.44C40.464 14.8 40.034 15.23 39.634 15.73C39.234 16.23 38.884 16.75 38.584 17.29C38.304 17.83 38.094 18.28 37.954 18.64C38.374 18.56 38.864 18.4 39.424 18.16C40.004 17.9 40.544 17.59 41.044 17.23C41.544 16.85 41.964 16.43 42.304 15.97C42.664 15.51 42.844 15.02 42.844 14.5ZM44.464 17.89C44.444 18.11 44.224 18.46 43.804 18.94C43.384 19.4 42.874 19.87 42.274 20.35C41.674 20.83 41.044 21.25 40.384 21.61C39.744 21.97 39.184 22.15 38.704 22.15C38.264 22.15 37.884 22.06 37.564 21.88C37.244 21.68 36.974 21.43 36.754 21.13C36.554 20.81 36.404 20.46 36.304 20.08C36.204 19.68 36.154 19.29 36.154 18.91C36.154 18.49 36.214 18.07 36.334 17.65C36.274 17.75 36.174 17.87 36.034 18.01C35.914 18.15 35.794 18.23 35.674 18.25L35.524 18.13C35.844 17.63 36.244 17.11 36.724 16.57C37.224 16.03 37.774 15.54 38.374 15.1C38.974 14.64 39.594 14.27 40.234 13.99C40.894 13.69 41.544 13.54 42.184 13.54C42.604 13.54 42.984 13.66 43.324 13.9C43.664 14.12 43.834 14.46 43.834 14.92C43.834 15.52 43.604 16.06 43.144 16.54C42.684 17 42.134 17.41 41.494 17.77C40.854 18.11 40.184 18.4 39.484 18.64C38.804 18.86 38.244 19.02 37.804 19.12C37.764 19.32 37.724 19.52 37.684 19.72C37.664 19.92 37.654 20.12 37.654 20.32C37.654 20.72 37.744 21.05 37.924 21.31C38.124 21.57 38.434 21.7 38.854 21.7C39.454 21.7 40.054 21.5 40.654 21.1C41.254 20.68 41.804 20.23 42.304 19.75C42.824 19.25 43.254 18.79 43.594 18.37C43.954 17.95 44.184 17.74 44.284 17.74L44.464 17.89ZM55.9615 17.86C55.8615 18.1 55.6015 18.46 55.1815 18.94C54.7615 19.4 54.2915 19.87 53.7715 20.35C53.2715 20.83 52.7715 21.25 52.2715 21.61C51.7715 21.97 51.3915 22.15 51.1315 22.15C50.8915 22.15 50.6815 22.1 50.5015 22C50.3415 21.88 50.2015 21.73 50.0815 21.55C49.9615 21.37 49.8715 21.17 49.8115 20.95C49.7515 20.73 49.7215 20.52 49.7215 20.32C49.7215 20.06 49.7815 19.76 49.9015 19.42C50.0415 19.06 50.2015 18.7 50.3815 18.34C50.5615 17.98 50.7515 17.63 50.9515 17.29C51.1515 16.95 51.3215 16.66 51.4615 16.42C51.2415 16.66 50.9815 16.95 50.6815 17.29C50.3815 17.63 50.0515 17.95 49.6915 18.25C49.3515 18.55 49.0015 18.81 48.6415 19.03C48.2815 19.23 47.9215 19.33 47.5615 19.33C47.0215 19.33 46.6015 19.15 46.3015 18.79C46.0215 18.41 45.8815 17.96 45.8815 17.44C45.8815 17.3 45.9215 17.13 46.0015 16.93C46.0815 16.73 46.1715 16.53 46.2715 16.33C46.3915 16.13 46.5015 15.94 46.6015 15.76C46.7215 15.58 46.8215 15.43 46.9015 15.31C46.8015 15.41 46.6115 15.63 46.3315 15.97C46.0715 16.29 45.7815 16.62 45.4615 16.96C45.1415 17.3 44.8415 17.61 44.5615 17.89C44.2815 18.15 44.1015 18.28 44.0215 18.28L43.8415 18.1C44.5015 17.4 45.1515 16.7 45.7915 16C46.4515 15.3 47.1015 14.59 47.7415 13.87L49.9015 13.75C49.8415 13.85 49.6515 14.11 49.3315 14.53C49.0315 14.95 48.7015 15.42 48.3415 15.94C47.9815 16.44 47.6615 16.92 47.3815 17.38C47.1015 17.84 46.9615 18.16 46.9615 18.34C46.9615 18.48 47.0115 18.61 47.1115 18.73C47.2115 18.83 47.3315 18.88 47.4715 18.88C47.9315 18.88 48.4215 18.68 48.9415 18.28C49.4815 17.88 50.0115 17.41 50.5315 16.87C51.0515 16.33 51.5315 15.78 51.9715 15.22C52.4315 14.64 52.8115 14.17 53.1115 13.81L55.1215 13.69C55.1015 13.73 54.9715 13.92 54.7315 14.26C54.5115 14.58 54.2315 14.99 53.8915 15.49C53.5715 15.99 53.2215 16.54 52.8415 17.14C52.4815 17.72 52.1315 18.29 51.7915 18.85C51.4715 19.39 51.2015 19.87 50.9815 20.29C50.7815 20.71 50.6815 21 50.6815 21.16C50.6815 21.52 50.8415 21.7 51.1615 21.7C51.5015 21.7 51.8815 21.52 52.3015 21.16C52.7415 20.8 53.1815 20.39 53.6215 19.93C54.0615 19.47 54.4715 19.03 54.8515 18.61C55.2315 18.17 55.5415 17.88 55.7815 17.74L55.9015 17.77L55.9615 17.86ZM67.4723 17.86C67.3723 18.1 67.1123 18.46 66.6923 18.94C66.2723 19.4 65.8023 19.87 65.2823 20.35C64.7823 20.83 64.2823 21.25 63.7823 21.61C63.2823 21.97 62.9023 22.15 62.6423 22.15C62.4023 22.15 62.1923 22.1 62.0123 22C61.8523 21.88 61.7123 21.73 61.5923 21.55C61.4723 21.37 61.3823 21.17 61.3223 20.95C61.2623 20.73 61.2323 20.52 61.2323 20.32C61.2323 19.98 61.2823 19.66 61.3823 19.36C61.4823 19.06 61.6123 18.77 61.7723 18.49C61.9323 18.19 62.1023 17.91 62.2823 17.65C62.4623 17.37 62.6423 17.09 62.8223 16.81H59.0123C58.5323 17.65 58.0523 18.49 57.5723 19.33C57.1123 20.17 56.6223 21 56.1023 21.82L54.3023 22.03L58.6223 15.13C58.5423 15.23 58.3623 15.44 58.0823 15.76C57.8023 16.06 57.4923 16.39 57.1523 16.75C56.8323 17.11 56.5123 17.44 56.1923 17.74C55.8923 18.04 55.6723 18.22 55.5323 18.28L55.4123 18.25L55.3523 18.16C56.0323 17.4 56.6923 16.67 57.3323 15.97C57.9723 15.25 58.5623 14.46 59.1023 13.6L61.0223 13.33L59.2523 16.36C59.8923 16.3 60.5223 16.28 61.1423 16.3C61.7823 16.3 62.4223 16.3 63.0623 16.3C63.3223 15.9 63.5823 15.5 63.8423 15.1C64.1023 14.68 64.3623 14.26 64.6223 13.84L66.6323 13.69L63.0323 19.39C62.9723 19.49 62.8923 19.62 62.7923 19.78C62.6923 19.92 62.5923 20.08 62.4923 20.26C62.4123 20.42 62.3423 20.59 62.2823 20.77C62.2223 20.93 62.1923 21.06 62.1923 21.16C62.1923 21.52 62.3523 21.7 62.6723 21.7C62.9923 21.7 63.3623 21.52 63.7823 21.16C64.2223 20.8 64.6623 20.4 65.1023 19.96C65.5623 19.5 65.9823 19.06 66.3623 18.64C66.7623 18.2 67.0723 17.9 67.2923 17.74L67.4123 17.77L67.4723 17.86ZM74.8181 15.49C74.8181 15.13 74.7281 14.79 74.5481 14.47C74.3881 14.15 74.0981 13.99 73.6781 13.99C73.1381 13.99 72.5881 14.24 72.0281 14.74C71.4681 15.24 70.9581 15.85 70.4981 16.57C70.0381 17.27 69.6581 18 69.3581 18.76C69.0781 19.5 68.9381 20.11 68.9381 20.59C68.9381 20.91 69.0081 21.17 69.1481 21.37C69.2881 21.57 69.5281 21.67 69.8681 21.67C70.3881 21.67 70.9381 21.45 71.5181 21.01C72.0981 20.55 72.6281 20 73.1081 19.36C73.6081 18.72 74.0181 18.05 74.3381 17.35C74.6581 16.63 74.8181 16.01 74.8181 15.49ZM77.6681 17.83C77.1481 18.47 76.5581 18.99 75.8981 19.39C75.2381 19.79 74.4681 19.9 73.5881 19.72C73.3481 19.98 73.0781 20.25 72.7781 20.53C72.4781 20.81 72.1481 21.07 71.7881 21.31C71.4481 21.55 71.0881 21.75 70.7081 21.91C70.3481 22.07 69.9881 22.15 69.6281 22.15C69.2081 22.15 68.8681 22.05 68.6081 21.85C68.3481 21.65 68.1381 21.4 67.9781 21.1C67.8381 20.78 67.7381 20.44 67.6781 20.08C67.6381 19.72 67.6181 19.37 67.6181 19.03C67.6181 18.79 67.6381 18.56 67.6781 18.34C67.7381 18.1 67.7981 17.87 67.8581 17.65C67.7981 17.75 67.6981 17.87 67.5581 18.01C67.4381 18.15 67.3181 18.23 67.1981 18.25L67.0481 18.13C67.0481 18.07 67.1081 17.97 67.2281 17.83C67.3481 17.67 67.4781 17.51 67.6181 17.35C67.7581 17.19 67.8881 17.04 68.0081 16.9C68.1481 16.76 68.2381 16.66 68.2781 16.6C68.5781 16.26 68.9281 15.91 69.3281 15.55C69.7481 15.17 70.1881 14.83 70.6481 14.53C71.1081 14.23 71.5881 13.98 72.0881 13.78C72.5881 13.58 73.0781 13.48 73.5581 13.48C74.1981 13.48 74.6981 13.68 75.0581 14.08C75.4381 14.48 75.6281 15 75.6281 15.64C75.6281 16.34 75.4481 16.99 75.0881 17.59C74.7481 18.19 74.3781 18.75 73.9781 19.27C74.0581 19.29 74.1381 19.31 74.2181 19.33C74.2981 19.35 74.3781 19.36 74.4581 19.36C75.0781 19.36 75.6181 19.18 76.0781 18.82C76.5381 18.44 76.9581 18.03 77.3381 17.59C77.4381 17.47 77.5281 17.45 77.6081 17.53C77.7081 17.61 77.7281 17.71 77.6681 17.83ZM93.8648 17.41C93.8048 17.63 93.5648 18 93.1448 18.52C92.7248 19.02 92.2448 19.54 91.7048 20.08C91.1648 20.6 90.6148 21.06 90.0548 21.46C89.4948 21.86 89.0348 22.06 88.6748 22.06C88.2748 22.06 87.9748 21.91 87.7748 21.61C87.5948 21.31 87.5048 20.99 87.5048 20.65C87.5048 20.11 87.6348 19.55 87.8948 18.97C88.1548 18.39 88.4248 17.87 88.7048 17.41C88.4648 17.71 88.1348 18.12 87.7148 18.64C87.3148 19.16 86.8648 19.68 86.3648 20.2C85.8648 20.7 85.3648 21.14 84.8648 21.52C84.3648 21.88 83.9048 22.06 83.4848 22.06C83.1448 22.06 82.8548 21.94 82.6148 21.7C82.3948 21.44 82.2848 21.14 82.2848 20.8C82.2848 20.22 82.4048 19.64 82.6448 19.06C82.9048 18.46 83.2048 17.93 83.5448 17.47C83.3048 17.75 82.9648 18.15 82.5248 18.67C82.0848 19.17 81.6048 19.68 81.0848 20.2C80.5648 20.7 80.0548 21.14 79.5548 21.52C79.0548 21.88 78.6248 22.06 78.2648 22.06C77.8448 22.06 77.5148 21.93 77.2748 21.67C77.0548 21.39 76.9448 21.04 76.9448 20.62C76.9448 20.2 77.0348 19.8 77.2148 19.42C77.4148 19.02 77.7748 18.82 78.2948 18.82C78.4548 18.82 78.6348 18.86 78.8348 18.94C78.9348 19.04 78.9948 19.14 79.0148 19.24C79.0548 19.34 79.0948 19.46 79.1348 19.6L79.0148 20.02C78.8948 20.14 78.7848 20.23 78.6848 20.29C78.5848 20.33 78.4848 20.39 78.3848 20.47C78.3048 20.53 78.2348 20.62 78.1748 20.74C78.1348 20.84 78.1148 21 78.1148 21.22C78.1148 21.26 78.1248 21.31 78.1448 21.37C78.1648 21.41 78.1848 21.45 78.2048 21.49L78.4448 21.58C78.6848 21.58 79.0148 21.41 79.4348 21.07C79.8548 20.73 80.3148 20.31 80.8148 19.81C81.3148 19.29 81.8348 18.72 82.3748 18.1C82.9148 17.46 83.4248 16.85 83.9048 16.27C84.3848 15.69 84.8048 15.17 85.1648 14.71C85.5248 14.25 85.7748 13.93 85.9148 13.75L88.0148 13.54C87.9948 13.56 87.8648 13.75 87.6248 14.11C87.3848 14.45 87.0848 14.88 86.7248 15.4C86.3648 15.9 85.9748 16.46 85.5548 17.08C85.1548 17.7 84.7748 18.29 84.4148 18.85C84.0548 19.41 83.7548 19.91 83.5148 20.35C83.2948 20.79 83.1848 21.08 83.1848 21.22C83.1848 21.26 83.1948 21.31 83.2148 21.37C83.2348 21.41 83.2548 21.45 83.2748 21.49C83.3548 21.55 83.4648 21.58 83.6048 21.58C83.8248 21.58 84.1448 21.41 84.5648 21.07C85.0048 20.73 85.4748 20.3 85.9748 19.78C86.4948 19.26 87.0248 18.69 87.5648 18.07C88.1048 17.45 88.6148 16.85 89.0948 16.27C89.5748 15.69 89.9948 15.17 90.3548 14.71C90.7348 14.25 90.9948 13.93 91.1348 13.75L93.2648 13.54C93.2648 13.54 93.1348 13.72 92.8748 14.08C92.6348 14.42 92.3348 14.85 91.9748 15.37C91.6148 15.89 91.2248 16.46 90.8048 17.08C90.3848 17.7 89.9948 18.3 89.6348 18.88C89.2748 19.44 88.9748 19.94 88.7348 20.38C88.4948 20.8 88.3748 21.07 88.3748 21.19C88.3748 21.23 88.3848 21.28 88.4048 21.34C88.4248 21.38 88.4448 21.42 88.4648 21.46C88.5848 21.54 88.6948 21.58 88.7948 21.58C89.0348 21.58 89.3148 21.48 89.6348 21.28C89.9548 21.08 90.2748 20.83 90.5948 20.53C90.9348 20.21 91.2748 19.87 91.6148 19.51C91.9548 19.13 92.2648 18.78 92.5448 18.46C92.8248 18.14 93.0648 17.87 93.2648 17.65C93.4848 17.43 93.6348 17.31 93.7148 17.29L93.8348 17.32L93.8648 17.41ZM97.023 20.8C97.023 21.28 96.833 21.77 96.453 22.27C96.093 22.79 95.643 23.26 95.103 23.68C94.583 24.1 94.023 24.44 93.423 24.7C92.843 24.96 92.333 25.09 91.893 25.09L91.683 24.88C91.683 24.8 91.743 24.72 91.863 24.64C91.983 24.56 92.123 24.49 92.283 24.43C92.423 24.39 92.573 24.35 92.733 24.31C92.873 24.27 92.973 24.24 93.033 24.22C93.553 24 93.943 23.74 94.203 23.44C94.463 23.16 94.643 22.86 94.743 22.54C94.863 22.22 94.933 21.9 94.953 21.58C94.973 21.26 95.003 20.98 95.043 20.74C95.103 20.48 95.203 20.28 95.343 20.14C95.503 19.98 95.763 19.9 96.123 19.9C96.383 19.9 96.593 19.99 96.753 20.17C96.933 20.33 97.023 20.54 97.023 20.8ZM113.018 15.49C113.018 15.13 112.928 14.79 112.748 14.47C112.588 14.15 112.298 13.99 111.878 13.99C111.338 13.99 110.788 14.24 110.228 14.74C109.668 15.24 109.158 15.85 108.698 16.57C108.238 17.27 107.858 18 107.558 18.76C107.278 19.5 107.138 20.11 107.138 20.59C107.138 20.91 107.208 21.17 107.348 21.37C107.488 21.57 107.728 21.67 108.068 21.67C108.588 21.67 109.138 21.45 109.718 21.01C110.298 20.55 110.828 20 111.308 19.36C111.808 18.72 112.218 18.05 112.538 17.35C112.858 16.63 113.018 16.01 113.018 15.49ZM119.318 3.73C119.038 4.33 118.758 4.78 118.478 5.08C118.198 5.38 117.868 5.59 117.488 5.71C117.108 5.83 116.658 5.89 116.138 5.89C115.618 5.87 114.998 5.86 114.278 5.86C113.998 5.86 113.648 5.87 113.228 5.89C112.828 5.89 112.428 5.94 112.028 6.04C111.648 6.14 111.318 6.3 111.038 6.52C110.778 6.74 110.648 7.06 110.648 7.48C110.648 7.8 110.818 8.12 111.158 8.44C111.518 8.74 111.908 9.11 112.328 9.55C112.768 9.99 113.158 10.52 113.498 11.14C113.858 11.74 114.038 12.5 114.038 13.42C114.038 13.88 113.988 14.38 113.888 14.92C113.808 15.44 113.688 15.96 113.528 16.48C113.368 17 113.168 17.51 112.928 18.01C112.708 18.49 112.458 18.91 112.178 19.27C112.258 19.29 112.338 19.31 112.418 19.33C112.498 19.35 112.578 19.36 112.658 19.36C113.278 19.36 113.818 19.18 114.278 18.82C114.738 18.44 115.158 18.03 115.538 17.59C115.678 17.47 115.778 17.45 115.838 17.53C115.918 17.61 115.928 17.71 115.868 17.83C115.348 18.47 114.758 18.99 114.098 19.39C113.438 19.79 112.668 19.9 111.788 19.72C111.548 19.98 111.278 20.25 110.978 20.53C110.678 20.81 110.348 21.07 109.988 21.31C109.648 21.55 109.288 21.75 108.908 21.91C108.548 22.07 108.188 22.15 107.828 22.15C107.408 22.15 107.068 22.05 106.808 21.85C106.548 21.65 106.338 21.4 106.178 21.1C106.038 20.78 105.938 20.44 105.878 20.08C105.838 19.72 105.818 19.37 105.818 19.03C105.818 18.79 105.838 18.56 105.878 18.34C105.938 18.1 105.998 17.87 106.058 17.65C105.998 17.75 105.898 17.87 105.758 18.01C105.638 18.15 105.518 18.23 105.398 18.25L105.248 18.13C105.248 18.07 105.308 17.97 105.428 17.83C105.548 17.67 105.678 17.51 105.818 17.35C105.958 17.19 106.088 17.04 106.208 16.9C106.348 16.76 106.438 16.66 106.478 16.6C106.778 16.26 107.128 15.91 107.528 15.55C107.948 15.17 108.388 14.83 108.848 14.53C109.308 14.23 109.788 13.98 110.288 13.78C110.788 13.58 111.278 13.48 111.758 13.48C112.038 13.48 112.328 13.55 112.628 13.69C112.948 13.83 113.188 14 113.348 14.2C113.408 14.04 113.438 13.88 113.438 13.72C113.438 13.56 113.438 13.41 113.438 13.27C113.418 12.49 113.228 11.82 112.868 11.26C112.508 10.7 112.118 10.2 111.698 9.76C111.278 9.32 110.888 8.92 110.528 8.56C110.188 8.18 110.018 7.79 110.018 7.39C110.018 6.65 110.188 6.09 110.528 5.71C110.888 5.33 111.378 5.06 111.998 4.9C112.618 4.74 113.358 4.66 114.218 4.66C115.098 4.64 116.058 4.63 117.098 4.63C117.678 4.63 118.118 4.51 118.418 4.27C118.718 4.03 118.978 3.78 119.198 3.52L119.318 3.73ZM122.561 14.5C122.561 14.34 122.511 14.2 122.411 14.08C122.311 13.96 122.181 13.9 122.021 13.9C121.561 13.9 121.101 14.08 120.641 14.44C120.181 14.8 119.751 15.23 119.351 15.73C118.951 16.23 118.601 16.75 118.301 17.29C118.021 17.83 117.811 18.28 117.671 18.64C118.091 18.56 118.581 18.4 119.141 18.16C119.721 17.9 120.261 17.59 120.761 17.23C121.261 16.85 121.681 16.43 122.021 15.97C122.381 15.51 122.561 15.02 122.561 14.5ZM124.181 17.89C124.161 18.11 123.941 18.46 123.521 18.94C123.101 19.4 122.591 19.87 121.991 20.35C121.391 20.83 120.761 21.25 120.101 21.61C119.461 21.97 118.901 22.15 118.421 22.15C117.981 22.15 117.601 22.06 117.281 21.88C116.961 21.68 116.691 21.43 116.471 21.13C116.271 20.81 116.121 20.46 116.021 20.08C115.921 19.68 115.871 19.29 115.871 18.91C115.871 18.49 115.931 18.07 116.051 17.65C115.991 17.75 115.891 17.87 115.751 18.01C115.631 18.15 115.511 18.23 115.391 18.25L115.241 18.13C115.561 17.63 115.961 17.11 116.441 16.57C116.941 16.03 117.491 15.54 118.091 15.1C118.691 14.64 119.311 14.27 119.951 13.99C120.611 13.69 121.261 13.54 121.901 13.54C122.321 13.54 122.701 13.66 123.041 13.9C123.381 14.12 123.551 14.46 123.551 14.92C123.551 15.52 123.321 16.06 122.861 16.54C122.401 17 121.851 17.41 121.211 17.77C120.571 18.11 119.901 18.4 119.201 18.64C118.521 18.86 117.961 19.02 117.521 19.12C117.481 19.32 117.441 19.52 117.401 19.72C117.381 19.92 117.371 20.12 117.371 20.32C117.371 20.72 117.461 21.05 117.641 21.31C117.841 21.57 118.151 21.7 118.571 21.7C119.171 21.7 119.771 21.5 120.371 21.1C120.971 20.68 121.521 20.23 122.021 19.75C122.541 19.25 122.971 18.79 123.311 18.37C123.671 17.95 123.901 17.74 124.001 17.74L124.181 17.89ZM132.468 17.89C132.468 17.97 132.398 18.1 132.258 18.28C132.118 18.46 131.958 18.65 131.778 18.85C131.598 19.03 131.428 19.2 131.268 19.36C131.108 19.52 130.998 19.63 130.938 19.69C130.658 19.97 130.358 20.26 130.038 20.56C129.718 20.84 129.378 21.1 129.018 21.34C128.678 21.58 128.308 21.78 127.908 21.94C127.508 22.08 127.098 22.15 126.678 22.15C126.238 22.15 125.858 22.05 125.538 21.85C125.238 21.65 124.978 21.4 124.758 21.1C124.558 20.78 124.408 20.43 124.308 20.05C124.208 19.67 124.158 19.29 124.158 18.91C124.158 18.49 124.218 18.08 124.338 17.68C124.278 17.78 124.178 17.9 124.038 18.04C123.918 18.16 123.798 18.23 123.678 18.25L123.498 18.13C123.818 17.65 124.228 17.14 124.728 16.6C125.228 16.06 125.768 15.57 126.348 15.13C126.948 14.67 127.568 14.29 128.208 13.99C128.868 13.69 129.508 13.54 130.128 13.54C130.628 13.54 131.078 13.66 131.478 13.9C131.878 14.14 132.078 14.54 132.078 15.1C132.078 15.42 131.978 15.73 131.778 16.03C131.598 16.33 131.328 16.48 130.968 16.48C130.728 16.48 130.518 16.42 130.338 16.3C130.158 16.18 130.068 15.98 130.068 15.7C130.068 15.52 130.118 15.39 130.218 15.31C130.318 15.21 130.418 15.12 130.518 15.04C130.638 14.96 130.748 14.88 130.848 14.8C130.948 14.72 130.998 14.61 130.998 14.47C130.998 14.31 130.928 14.19 130.788 14.11C130.668 14.01 130.528 13.96 130.368 13.96C129.788 13.96 129.218 14.2 128.658 14.68C128.098 15.14 127.588 15.71 127.128 16.39C126.688 17.05 126.328 17.75 126.048 18.49C125.768 19.21 125.628 19.82 125.628 20.32C125.628 20.72 125.728 21.06 125.928 21.34C126.128 21.6 126.438 21.73 126.858 21.73C127.458 21.73 128.058 21.53 128.658 21.13C129.258 20.71 129.808 20.25 130.308 19.75C130.828 19.25 131.258 18.79 131.598 18.37C131.958 17.95 132.188 17.74 132.288 17.74L132.468 17.89ZM140.246 22.72C139.946 22.88 139.546 23.1 139.046 23.38C138.566 23.66 138.096 23.97 137.636 24.31C137.196 24.67 136.806 25.05 136.466 25.45C136.146 25.85 135.986 26.25 135.986 26.65C135.986 26.79 136.026 26.88 136.106 26.92C136.206 26.98 136.316 27.01 136.436 27.01C136.716 27.01 137.046 26.83 137.426 26.47C137.826 26.11 138.216 25.69 138.596 25.21C138.976 24.73 139.316 24.25 139.616 23.77C139.916 23.31 140.126 22.96 140.246 22.72ZM145.226 17.77C144.886 18.13 144.546 18.52 144.206 18.94C143.886 19.36 143.556 19.78 143.216 20.2C142.876 20.6 142.526 20.99 142.166 21.37C141.806 21.75 141.416 22.08 140.996 22.36C140.836 22.68 140.576 23.12 140.216 23.68C139.876 24.26 139.486 24.82 139.046 25.36C138.626 25.92 138.186 26.4 137.726 26.8C137.266 27.22 136.826 27.43 136.406 27.43C135.786 27.43 135.476 27.14 135.476 26.56C135.476 26.1 135.676 25.64 136.076 25.18C136.476 24.72 136.956 24.28 137.516 23.86C138.076 23.46 138.646 23.09 139.226 22.75C139.806 22.43 140.266 22.18 140.606 22L141.026 21.22C140.826 21.42 140.546 21.63 140.186 21.85C139.846 22.05 139.536 22.15 139.256 22.15C138.996 22.15 138.776 22.09 138.596 21.97C138.416 21.83 138.266 21.66 138.146 21.46C138.046 21.26 137.966 21.04 137.906 20.8C137.866 20.56 137.846 20.33 137.846 20.11C137.846 19.95 137.856 19.8 137.876 19.66C137.896 19.52 137.926 19.38 137.966 19.24C137.766 19.46 137.506 19.74 137.186 20.08C136.886 20.4 136.556 20.72 136.196 21.04C135.836 21.34 135.466 21.6 135.086 21.82C134.706 22.04 134.356 22.15 134.036 22.15C133.496 22.15 133.086 21.96 132.806 21.58C132.526 21.2 132.386 20.76 132.386 20.26C132.386 19.9 132.476 19.5 132.656 19.06C132.836 18.62 133.046 18.18 133.286 17.74C133.546 17.3 133.816 16.88 134.096 16.48C134.376 16.08 134.616 15.73 134.816 15.43C134.756 15.49 134.586 15.68 134.306 16C134.046 16.3 133.756 16.62 133.436 16.96C133.136 17.28 132.846 17.58 132.566 17.86C132.306 18.12 132.146 18.25 132.086 18.25L131.936 18.16C131.936 18.1 132.016 17.96 132.176 17.74C132.356 17.5 132.576 17.23 132.836 16.93C133.116 16.63 133.406 16.31 133.706 15.97C134.006 15.63 134.296 15.31 134.576 15.01C134.876 14.71 135.126 14.45 135.326 14.23C135.546 14.01 135.686 13.87 135.746 13.81L137.906 13.69C137.886 13.73 137.756 13.92 137.516 14.26C137.296 14.6 137.016 15.02 136.676 15.52C136.356 16.02 136.006 16.57 135.626 17.17C135.266 17.75 134.916 18.31 134.576 18.85C134.256 19.39 133.986 19.87 133.766 20.29C133.566 20.71 133.466 21 133.466 21.16C133.466 21.3 133.506 21.43 133.586 21.55C133.666 21.65 133.786 21.7 133.946 21.7C134.346 21.7 134.776 21.55 135.236 21.25C135.716 20.93 136.196 20.53 136.676 20.05C137.156 19.57 137.626 19.03 138.086 18.43C138.566 17.83 139.006 17.24 139.406 16.66C139.826 16.06 140.186 15.51 140.486 15.01C140.806 14.51 141.056 14.11 141.236 13.81L143.246 13.69C143.186 13.79 143.026 14.02 142.766 14.38C142.526 14.74 142.236 15.18 141.896 15.7C141.576 16.2 141.236 16.74 140.876 17.32C140.516 17.88 140.176 18.42 139.856 18.94C139.556 19.46 139.306 19.92 139.106 20.32C138.906 20.72 138.806 21 138.806 21.16C138.806 21.52 138.966 21.7 139.286 21.7C139.586 21.7 139.926 21.54 140.306 21.22C140.706 20.9 141.076 20.55 141.416 20.17C141.756 19.79 142.056 19.44 142.316 19.12C142.576 18.8 142.726 18.64 142.766 18.64L142.946 18.76C142.946 18.82 142.876 18.98 142.736 19.24C142.596 19.5 142.436 19.78 142.256 20.08C142.076 20.38 141.896 20.67 141.716 20.95C141.556 21.23 141.446 21.42 141.386 21.52C141.766 21.28 142.106 20.98 142.406 20.62C142.726 20.26 143.026 19.89 143.306 19.51C143.586 19.11 143.866 18.73 144.146 18.37C144.446 17.99 144.776 17.67 145.136 17.41C145.216 17.41 145.256 17.48 145.256 17.62L145.226 17.77ZM151.946 14.5C151.946 14.34 151.896 14.2 151.796 14.08C151.696 13.96 151.566 13.9 151.406 13.9C150.946 13.9 150.486 14.08 150.026 14.44C149.566 14.8 149.136 15.23 148.736 15.73C148.336 16.23 147.986 16.75 147.686 17.29C147.406 17.83 147.196 18.28 147.056 18.64C147.476 18.56 147.966 18.4 148.526 18.16C149.106 17.9 149.646 17.59 150.146 17.23C150.646 16.85 151.066 16.43 151.406 15.97C151.766 15.51 151.946 15.02 151.946 14.5ZM153.566 17.89C153.546 18.11 153.326 18.46 152.906 18.94C152.486 19.4 151.976 19.87 151.376 20.35C150.776 20.83 150.146 21.25 149.486 21.61C148.846 21.97 148.286 22.15 147.806 22.15C147.366 22.15 146.986 22.06 146.666 21.88C146.346 21.68 146.076 21.43 145.856 21.13C145.656 20.81 145.506 20.46 145.406 20.08C145.306 19.68 145.256 19.29 145.256 18.91C145.256 18.49 145.316 18.07 145.436 17.65C145.376 17.75 145.276 17.87 145.136 18.01C145.016 18.15 144.896 18.23 144.776 18.25L144.626 18.13C144.946 17.63 145.346 17.11 145.826 16.57C146.326 16.03 146.876 15.54 147.476 15.1C148.076 14.64 148.696 14.27 149.336 13.99C149.996 13.69 150.646 13.54 151.286 13.54C151.706 13.54 152.086 13.66 152.426 13.9C152.766 14.12 152.936 14.46 152.936 14.92C152.936 15.52 152.706 16.06 152.246 16.54C151.786 17 151.236 17.41 150.596 17.77C149.956 18.11 149.286 18.4 148.586 18.64C147.906 18.86 147.346 19.02 146.906 19.12C146.866 19.32 146.826 19.52 146.786 19.72C146.766 19.92 146.756 20.12 146.756 20.32C146.756 20.72 146.846 21.05 147.026 21.31C147.226 21.57 147.536 21.7 147.956 21.7C148.556 21.7 149.156 21.5 149.756 21.1C150.356 20.68 150.906 20.23 151.406 19.75C151.926 19.25 152.356 18.79 152.696 18.37C153.056 17.95 153.286 17.74 153.386 17.74L153.566 17.89ZM164.943 17.86C164.843 18.1 164.583 18.46 164.163 18.94C163.743 19.4 163.273 19.87 162.753 20.35C162.253 20.83 161.753 21.25 161.253 21.61C160.753 21.97 160.373 22.15 160.113 22.15C159.873 22.15 159.663 22.1 159.483 22C159.323 21.88 159.183 21.73 159.063 21.55C158.943 21.37 158.853 21.17 158.793 20.95C158.733 20.73 158.703 20.52 158.703 20.32C158.703 19.98 158.753 19.66 158.853 19.36C158.953 19.06 159.083 18.77 159.243 18.49C159.403 18.19 159.573 17.91 159.753 17.65C159.933 17.37 160.113 17.09 160.293 16.81H156.483C156.003 17.65 155.523 18.49 155.043 19.33C154.583 20.17 154.093 21 153.573 21.82L151.773 22.03L156.093 15.13C156.013 15.23 155.833 15.44 155.553 15.76C155.273 16.06 154.963 16.39 154.623 16.75C154.303 17.11 153.983 17.44 153.663 17.74C153.363 18.04 153.143 18.22 153.003 18.28L152.883 18.25L152.823 18.16C153.503 17.4 154.163 16.67 154.803 15.97C155.443 15.25 156.033 14.46 156.573 13.6L158.493 13.33L156.723 16.36C157.363 16.3 157.993 16.28 158.613 16.3C159.253 16.3 159.893 16.3 160.533 16.3C160.793 15.9 161.053 15.5 161.313 15.1C161.573 14.68 161.833 14.26 162.093 13.84L164.103 13.69L160.503 19.39C160.443 19.49 160.363 19.62 160.263 19.78C160.163 19.92 160.063 20.08 159.963 20.26C159.883 20.42 159.813 20.59 159.753 20.77C159.693 20.93 159.663 21.06 159.663 21.16C159.663 21.52 159.823 21.7 160.143 21.7C160.463 21.7 160.833 21.52 161.253 21.16C161.693 20.8 162.133 20.4 162.573 19.96C163.033 19.5 163.453 19.06 163.833 18.64C164.233 18.2 164.543 17.9 164.763 17.74L164.883 17.77L164.943 17.86ZM176.369 17.86C176.269 18.1 176.009 18.46 175.589 18.94C175.169 19.4 174.699 19.87 174.179 20.35C173.679 20.83 173.179 21.25 172.679 21.61C172.179 21.97 171.799 22.15 171.539 22.15C171.299 22.15 171.089 22.1 170.909 22C170.749 21.88 170.609 21.73 170.489 21.55C170.369 21.37 170.279 21.17 170.219 20.95C170.159 20.73 170.129 20.52 170.129 20.32C170.129 19.98 170.179 19.66 170.279 19.36C170.379 19.06 170.509 18.77 170.669 18.49C170.829 18.19 170.999 17.91 171.179 17.65C171.359 17.37 171.539 17.09 171.719 16.81H167.909C167.429 17.65 166.949 18.49 166.469 19.33C166.009 20.17 165.519 21 164.999 21.82L163.199 22.03L167.519 15.13C167.439 15.23 167.259 15.44 166.979 15.76C166.699 16.06 166.389 16.39 166.049 16.75C165.729 17.11 165.409 17.44 165.089 17.74C164.789 18.04 164.569 18.22 164.429 18.28L164.309 18.25L164.249 18.16C164.929 17.4 165.589 16.67 166.229 15.97C166.869 15.25 167.459 14.46 167.999 13.6L169.919 13.33L168.149 16.36C168.789 16.3 169.419 16.28 170.039 16.3C170.679 16.3 171.319 16.3 171.959 16.3C172.219 15.9 172.479 15.5 172.739 15.1C172.999 14.68 173.259 14.26 173.519 13.84L175.529 13.69L171.929 19.39C171.869 19.49 171.789 19.62 171.689 19.78C171.589 19.92 171.489 20.08 171.389 20.26C171.309 20.42 171.239 20.59 171.179 20.77C171.119 20.93 171.089 21.06 171.089 21.16C171.089 21.52 171.249 21.7 171.569 21.7C171.889 21.7 172.259 21.52 172.679 21.16C173.119 20.8 173.559 20.4 173.999 19.96C174.459 19.5 174.879 19.06 175.259 18.64C175.659 18.2 175.969 17.9 176.189 17.74L176.309 17.77L176.369 17.86ZM183.715 15.49C183.715 15.13 183.625 14.79 183.445 14.47C183.285 14.15 182.995 13.99 182.575 13.99C182.035 13.99 181.485 14.24 180.925 14.74C180.365 15.24 179.855 15.85 179.395 16.57C178.935 17.27 178.555 18 178.255 18.76C177.975 19.5 177.835 20.11 177.835 20.59C177.835 20.91 177.905 21.17 178.045 21.37C178.185 21.57 178.425 21.67 178.765 21.67C179.285 21.67 179.835 21.45 180.415 21.01C180.995 20.55 181.525 20 182.005 19.36C182.505 18.72 182.915 18.05 183.235 17.35C183.555 16.63 183.715 16.01 183.715 15.49ZM186.565 17.83C186.045 18.47 185.455 18.99 184.795 19.39C184.135 19.79 183.365 19.9 182.485 19.72C182.245 19.98 181.975 20.25 181.675 20.53C181.375 20.81 181.045 21.07 180.685 21.31C180.345 21.55 179.985 21.75 179.605 21.91C179.245 22.07 178.885 22.15 178.525 22.15C178.105 22.15 177.765 22.05 177.505 21.85C177.245 21.65 177.035 21.4 176.875 21.1C176.735 20.78 176.635 20.44 176.575 20.08C176.535 19.72 176.515 19.37 176.515 19.03C176.515 18.79 176.535 18.56 176.575 18.34C176.635 18.1 176.695 17.87 176.755 17.65C176.695 17.75 176.595 17.87 176.455 18.01C176.335 18.15 176.215 18.23 176.095 18.25L175.945 18.13C175.945 18.07 176.005 17.97 176.125 17.83C176.245 17.67 176.375 17.51 176.515 17.35C176.655 17.19 176.785 17.04 176.905 16.9C177.045 16.76 177.135 16.66 177.175 16.6C177.475 16.26 177.825 15.91 178.225 15.55C178.645 15.17 179.085 14.83 179.545 14.53C180.005 14.23 180.485 13.98 180.985 13.78C181.485 13.58 181.975 13.48 182.455 13.48C183.095 13.48 183.595 13.68 183.955 14.08C184.335 14.48 184.525 15 184.525 15.64C184.525 16.34 184.345 16.99 183.985 17.59C183.645 18.19 183.275 18.75 182.875 19.27C182.955 19.29 183.035 19.31 183.115 19.33C183.195 19.35 183.275 19.36 183.355 19.36C183.975 19.36 184.515 19.18 184.975 18.82C185.435 18.44 185.855 18.03 186.235 17.59C186.335 17.47 186.425 17.45 186.505 17.53C186.605 17.61 186.625 17.71 186.565 17.83ZM202.761 17.41C202.701 17.63 202.461 18 202.041 18.52C201.621 19.02 201.141 19.54 200.601 20.08C200.061 20.6 199.511 21.06 198.951 21.46C198.391 21.86 197.931 22.06 197.571 22.06C197.171 22.06 196.871 21.91 196.671 21.61C196.491 21.31 196.401 20.99 196.401 20.65C196.401 20.11 196.531 19.55 196.791 18.97C197.051 18.39 197.321 17.87 197.601 17.41C197.361 17.71 197.031 18.12 196.611 18.64C196.211 19.16 195.761 19.68 195.261 20.2C194.761 20.7 194.261 21.14 193.761 21.52C193.261 21.88 192.801 22.06 192.381 22.06C192.041 22.06 191.751 21.94 191.511 21.7C191.291 21.44 191.181 21.14 191.181 20.8C191.181 20.22 191.301 19.64 191.541 19.06C191.801 18.46 192.101 17.93 192.441 17.47C192.201 17.75 191.861 18.15 191.421 18.67C190.981 19.17 190.501 19.68 189.981 20.2C189.461 20.7 188.951 21.14 188.451 21.52C187.951 21.88 187.521 22.06 187.161 22.06C186.741 22.06 186.411 21.93 186.171 21.67C185.951 21.39 185.841 21.04 185.841 20.62C185.841 20.2 185.931 19.8 186.111 19.42C186.311 19.02 186.671 18.82 187.191 18.82C187.351 18.82 187.531 18.86 187.731 18.94C187.831 19.04 187.891 19.14 187.911 19.24C187.951 19.34 187.991 19.46 188.031 19.6L187.911 20.02C187.791 20.14 187.681 20.23 187.581 20.29C187.481 20.33 187.381 20.39 187.281 20.47C187.201 20.53 187.131 20.62 187.071 20.74C187.031 20.84 187.011 21 187.011 21.22C187.011 21.26 187.021 21.31 187.041 21.37C187.061 21.41 187.081 21.45 187.101 21.49L187.341 21.58C187.581 21.58 187.911 21.41 188.331 21.07C188.751 20.73 189.211 20.31 189.711 19.81C190.211 19.29 190.731 18.72 191.271 18.1C191.811 17.46 192.321 16.85 192.801 16.27C193.281 15.69 193.701 15.17 194.061 14.71C194.421 14.25 194.671 13.93 194.811 13.75L196.911 13.54C196.891 13.56 196.761 13.75 196.521 14.11C196.281 14.45 195.981 14.88 195.621 15.4C195.261 15.9 194.871 16.46 194.451 17.08C194.051 17.7 193.671 18.29 193.311 18.85C192.951 19.41 192.651 19.91 192.411 20.35C192.191 20.79 192.081 21.08 192.081 21.22C192.081 21.26 192.091 21.31 192.111 21.37C192.131 21.41 192.151 21.45 192.171 21.49C192.251 21.55 192.361 21.58 192.501 21.58C192.721 21.58 193.041 21.41 193.461 21.07C193.901 20.73 194.371 20.3 194.871 19.78C195.391 19.26 195.921 18.69 196.461 18.07C197.001 17.45 197.511 16.85 197.991 16.27C198.471 15.69 198.891 15.17 199.251 14.71C199.631 14.25 199.891 13.93 200.031 13.75L202.161 13.54C202.161 13.54 202.031 13.72 201.771 14.08C201.531 14.42 201.231 14.85 200.871 15.37C200.511 15.89 200.121 16.46 199.701 17.08C199.281 17.7 198.891 18.3 198.531 18.88C198.171 19.44 197.871 19.94 197.631 20.38C197.391 20.8 197.271 21.07 197.271 21.19C197.271 21.23 197.281 21.28 197.301 21.34C197.321 21.38 197.341 21.42 197.361 21.46C197.481 21.54 197.591 21.58 197.691 21.58C197.931 21.58 198.211 21.48 198.531 21.28C198.851 21.08 199.171 20.83 199.491 20.53C199.831 20.21 200.171 19.87 200.511 19.51C200.851 19.13 201.161 18.78 201.441 18.46C201.721 18.14 201.961 17.87 202.161 17.65C202.381 17.43 202.531 17.31 202.611 17.29L202.731 17.32L202.761 17.41ZM205.92 20.8C205.92 21.28 205.73 21.77 205.35 22.27C204.99 22.79 204.54 23.26 204 23.68C203.48 24.1 202.92 24.44 202.32 24.7C201.74 24.96 201.23 25.09 200.79 25.09L200.58 24.88C200.58 24.8 200.64 24.72 200.76 24.64C200.88 24.56 201.02 24.49 201.18 24.43C201.32 24.39 201.47 24.35 201.63 24.31C201.77 24.27 201.87 24.24 201.93 24.22C202.45 24 202.84 23.74 203.1 23.44C203.36 23.16 203.54 22.86 203.64 22.54C203.76 22.22 203.83 21.9 203.85 21.58C203.87 21.26 203.9 20.98 203.94 20.74C204 20.48 204.1 20.28 204.24 20.14C204.4 19.98 204.66 19.9 205.02 19.9C205.28 19.9 205.49 19.99 205.65 20.17C205.83 20.33 205.92 20.54 205.92 20.8ZM225.905 17.89C225.905 17.99 225.805 18.17 225.605 18.43C225.405 18.67 225.155 18.95 224.855 19.27C224.555 19.59 224.215 19.92 223.835 20.26C223.475 20.6 223.115 20.91 222.755 21.19C222.415 21.47 222.095 21.7 221.795 21.88C221.495 22.06 221.265 22.15 221.105 22.15C220.825 22.15 220.595 22.08 220.415 21.94C220.235 21.8 220.085 21.63 219.965 21.43C219.865 21.21 219.785 20.98 219.725 20.74C219.685 20.48 219.665 20.24 219.665 20.02C219.665 19.46 219.835 18.9 220.175 18.34C220.515 17.76 220.885 17.22 221.285 16.72C221.685 16.2 222.055 15.74 222.395 15.34C222.735 14.92 222.905 14.59 222.905 14.35C222.905 14.11 222.795 13.99 222.575 13.99C222.255 13.99 221.845 14.18 221.345 14.56C220.865 14.94 220.345 15.42 219.785 16C219.245 16.58 218.695 17.23 218.135 17.95C217.575 18.65 217.045 19.34 216.545 20.02C216.065 20.68 215.635 21.28 215.255 21.82C214.895 22.36 214.645 22.75 214.505 22.99L210.545 29.71L208.595 29.92L217.355 15.13C217.135 15.37 216.895 15.64 216.635 15.94C216.395 16.22 216.145 16.51 215.885 16.81C215.625 17.11 215.355 17.39 215.075 17.65C214.795 17.91 214.525 18.12 214.265 18.28L214.085 18.16C214.085 18.1 214.145 18 214.265 17.86C214.385 17.7 214.515 17.54 214.655 17.38C214.815 17.22 214.965 17.07 215.105 16.93C215.245 16.79 215.335 16.69 215.375 16.63C217.195 14.75 218.785 12.73 220.145 10.57L221.885 7.84L223.685 7.69L217.265 18.16C217.485 17.92 217.825 17.54 218.285 17.02C218.765 16.5 219.275 15.98 219.815 15.46C220.355 14.94 220.885 14.49 221.405 14.11C221.945 13.71 222.395 13.51 222.755 13.51C223.155 13.51 223.445 13.67 223.625 13.99C223.805 14.31 223.895 14.64 223.895 14.98C223.895 15.54 223.725 16.11 223.385 16.69C223.045 17.25 222.675 17.8 222.275 18.34C221.875 18.88 221.505 19.39 221.165 19.87C220.825 20.35 220.655 20.78 220.655 21.16C220.655 21.52 220.815 21.7 221.135 21.7C221.335 21.7 221.575 21.61 221.855 21.43C222.155 21.23 222.465 20.98 222.785 20.68C223.125 20.38 223.455 20.06 223.775 19.72C224.115 19.38 224.425 19.07 224.705 18.79C224.985 18.49 225.215 18.24 225.395 18.04C225.595 17.84 225.715 17.74 225.755 17.74L225.905 17.89ZM233.344 15.49C233.344 15.13 233.254 14.79 233.074 14.47C232.914 14.15 232.624 13.99 232.204 13.99C231.664 13.99 231.114 14.24 230.554 14.74C229.994 15.24 229.484 15.85 229.024 16.57C228.564 17.27 228.184 18 227.884 18.76C227.604 19.5 227.464 20.11 227.464 20.59C227.464 20.91 227.534 21.17 227.674 21.37C227.814 21.57 228.054 21.67 228.394 21.67C228.914 21.67 229.464 21.45 230.044 21.01C230.624 20.55 231.154 20 231.634 19.36C232.134 18.72 232.544 18.05 232.864 17.35C233.184 16.63 233.344 16.01 233.344 15.49ZM236.194 17.83C235.674 18.47 235.084 18.99 234.424 19.39C233.764 19.79 232.994 19.9 232.114 19.72C231.874 19.98 231.604 20.25 231.304 20.53C231.004 20.81 230.674 21.07 230.314 21.31C229.974 21.55 229.614 21.75 229.234 21.91C228.874 22.07 228.514 22.15 228.154 22.15C227.734 22.15 227.394 22.05 227.134 21.85C226.874 21.65 226.664 21.4 226.504 21.1C226.364 20.78 226.264 20.44 226.204 20.08C226.164 19.72 226.144 19.37 226.144 19.03C226.144 18.79 226.164 18.56 226.204 18.34C226.264 18.1 226.324 17.87 226.384 17.65C226.324 17.75 226.224 17.87 226.084 18.01C225.964 18.15 225.844 18.23 225.724 18.25L225.574 18.13C225.574 18.07 225.634 17.97 225.754 17.83C225.874 17.67 226.004 17.51 226.144 17.35C226.284 17.19 226.414 17.04 226.534 16.9C226.674 16.76 226.764 16.66 226.804 16.6C227.104 16.26 227.454 15.91 227.854 15.55C228.274 15.17 228.714 14.83 229.174 14.53C229.634 14.23 230.114 13.98 230.614 13.78C231.114 13.58 231.604 13.48 232.084 13.48C232.724 13.48 233.224 13.68 233.584 14.08C233.964 14.48 234.154 15 234.154 15.64C234.154 16.34 233.974 16.99 233.614 17.59C233.274 18.19 232.904 18.75 232.504 19.27C232.584 19.29 232.664 19.31 232.744 19.33C232.824 19.35 232.904 19.36 232.984 19.36C233.604 19.36 234.144 19.18 234.604 18.82C235.064 18.44 235.484 18.03 235.864 17.59C235.964 17.47 236.054 17.45 236.134 17.53C236.234 17.61 236.254 17.71 236.194 17.83ZM240.18 23.2C239.7 23.48 239.07 23.87 238.29 24.37C237.53 24.87 236.78 25.43 236.04 26.05C235.3 26.69 234.66 27.35 234.12 28.03C233.58 28.73 233.31 29.4 233.31 30.04C233.31 30.32 233.38 30.56 233.52 30.76C233.64 30.96 233.86 31.06 234.18 31.06C234.56 31.06 234.96 30.9 235.38 30.58C235.78 30.28 236.18 29.88 236.58 29.38C236.98 28.9 237.36 28.36 237.72 27.76C238.1 27.16 238.45 26.57 238.77 25.99C239.09 25.41 239.37 24.87 239.61 24.37C239.85 23.87 240.04 23.48 240.18 23.2ZM243.6 14.92C243.6 14.64 243.5 14.42 243.3 14.26C243.1 14.08 242.87 13.99 242.61 13.99C242.03 13.99 241.44 14.24 240.84 14.74C240.24 15.24 239.69 15.85 239.19 16.57C238.71 17.27 238.31 18 237.99 18.76C237.69 19.52 237.54 20.16 237.54 20.68C237.54 20.9 237.59 21.11 237.69 21.31C237.81 21.51 238 21.61 238.26 21.61C238.74 21.61 239.29 21.36 239.91 20.86C240.53 20.34 241.11 19.73 241.65 19.03C242.21 18.31 242.67 17.57 243.03 16.81C243.41 16.05 243.6 15.42 243.6 14.92ZM247.26 17.89C247.22 18.17 246.96 18.56 246.48 19.06C246 19.54 245.45 20.03 244.83 20.53C244.21 21.03 243.61 21.49 243.03 21.91C242.45 22.33 242.05 22.61 241.83 22.75C241.63 23.11 241.37 23.58 241.05 24.16C240.73 24.74 240.36 25.35 239.94 25.99C239.54 26.63 239.09 27.28 238.59 27.94C238.11 28.6 237.61 29.19 237.09 29.71C236.59 30.23 236.08 30.65 235.56 30.97C235.04 31.31 234.53 31.48 234.03 31.48C233.01 31.48 232.5 30.98 232.5 29.98C232.5 29.5 232.65 29.01 232.95 28.51C233.25 28.01 233.64 27.52 234.12 27.04C234.6 26.56 235.14 26.09 235.74 25.63C236.32 25.19 236.9 24.77 237.48 24.37C238.08 23.99 238.65 23.64 239.19 23.32C239.73 23.02 240.17 22.77 240.51 22.57L242.04 19.27C241.82 19.53 241.55 19.83 241.23 20.17C240.93 20.49 240.6 20.8 240.24 21.1C239.9 21.4 239.54 21.65 239.16 21.85C238.78 22.05 238.4 22.15 238.02 22.15C237.66 22.15 237.36 22.04 237.12 21.82C236.9 21.6 236.72 21.34 236.58 21.04C236.46 20.72 236.38 20.39 236.34 20.05C236.3 19.69 236.28 19.37 236.28 19.09C236.28 18.57 236.35 18.1 236.49 17.68C236.43 17.78 236.34 17.9 236.22 18.04C236.12 18.18 236 18.26 235.86 18.28L235.68 18.16C235.7 18.08 235.77 17.96 235.89 17.8C236.01 17.62 236.15 17.45 236.31 17.29C236.47 17.11 236.62 16.95 236.76 16.81C236.92 16.65 237.03 16.54 237.09 16.48C237.41 16.16 237.78 15.83 238.2 15.49C238.62 15.13 239.06 14.81 239.52 14.53C240 14.23 240.49 13.99 240.99 13.81C241.49 13.63 241.99 13.54 242.49 13.54C242.91 13.54 243.28 13.66 243.6 13.9C243.92 14.12 244.08 14.46 244.08 14.92C244.08 15.02 244.07 15.13 244.05 15.25C244.03 15.37 244 15.48 243.96 15.58L245.19 13.78L247.02 13.66C246.18 15.04 245.36 16.43 244.56 17.83C243.76 19.21 242.99 20.62 242.25 22.06C243.39 21.32 244.41 20.5 245.31 19.6C245.35 19.56 245.46 19.44 245.64 19.24C245.82 19.04 246.01 18.83 246.21 18.61C246.43 18.39 246.62 18.19 246.78 18.01C246.96 17.83 247.07 17.74 247.11 17.74L247.26 17.89ZM258.634 17.86C258.534 18.1 258.274 18.46 257.854 18.94C257.434 19.4 256.964 19.87 256.444 20.35C255.944 20.83 255.444 21.25 254.944 21.61C254.444 21.97 254.064 22.15 253.804 22.15C253.564 22.15 253.354 22.1 253.174 22C253.014 21.88 252.874 21.73 252.754 21.55C252.634 21.37 252.544 21.17 252.484 20.95C252.424 20.73 252.394 20.52 252.394 20.32C252.394 19.98 252.444 19.66 252.544 19.36C252.644 19.06 252.774 18.77 252.934 18.49C253.094 18.19 253.264 17.91 253.444 17.65C253.624 17.37 253.804 17.09 253.984 16.81H250.174C249.694 17.65 249.214 18.49 248.734 19.33C248.274 20.17 247.784 21 247.264 21.82L245.464 22.03L249.784 15.13C249.704 15.23 249.524 15.44 249.244 15.76C248.964 16.06 248.654 16.39 248.314 16.75C247.994 17.11 247.674 17.44 247.354 17.74C247.054 18.04 246.834 18.22 246.694 18.28L246.574 18.25L246.514 18.16C247.194 17.4 247.854 16.67 248.494 15.97C249.134 15.25 249.724 14.46 250.264 13.6L252.184 13.33L250.414 16.36C251.054 16.3 251.684 16.28 252.304 16.3C252.944 16.3 253.584 16.3 254.224 16.3C254.484 15.9 254.744 15.5 255.004 15.1C255.264 14.68 255.524 14.26 255.784 13.84L257.794 13.69L254.194 19.39C254.134 19.49 254.054 19.62 253.954 19.78C253.854 19.92 253.754 20.08 253.654 20.26C253.574 20.42 253.504 20.59 253.444 20.77C253.384 20.93 253.354 21.06 253.354 21.16C253.354 21.52 253.514 21.7 253.834 21.7C254.154 21.7 254.524 21.52 254.944 21.16C255.384 20.8 255.824 20.4 256.264 19.96C256.724 19.5 257.144 19.06 257.524 18.64C257.924 18.2 258.234 17.9 258.454 17.74L258.574 17.77L258.634 17.86ZM265.98 15.49C265.98 15.13 265.89 14.79 265.71 14.47C265.55 14.15 265.26 13.99 264.84 13.99C264.3 13.99 263.75 14.24 263.19 14.74C262.63 15.24 262.12 15.85 261.66 16.57C261.2 17.27 260.82 18 260.52 18.76C260.24 19.5 260.1 20.11 260.1 20.59C260.1 20.91 260.17 21.17 260.31 21.37C260.45 21.57 260.69 21.67 261.03 21.67C261.55 21.67 262.1 21.45 262.68 21.01C263.26 20.55 263.79 20 264.27 19.36C264.77 18.72 265.18 18.05 265.5 17.35C265.82 16.63 265.98 16.01 265.98 15.49ZM268.83 17.83C268.31 18.47 267.72 18.99 267.06 19.39C266.4 19.79 265.63 19.9 264.75 19.72C264.51 19.98 264.24 20.25 263.94 20.53C263.64 20.81 263.31 21.07 262.95 21.31C262.61 21.55 262.25 21.75 261.87 21.91C261.51 22.07 261.15 22.15 260.79 22.15C260.37 22.15 260.03 22.05 259.77 21.85C259.51 21.65 259.3 21.4 259.14 21.1C259 20.78 258.9 20.44 258.84 20.08C258.8 19.72 258.78 19.37 258.78 19.03C258.78 18.79 258.8 18.56 258.84 18.34C258.9 18.1 258.96 17.87 259.02 17.65C258.96 17.75 258.86 17.87 258.72 18.01C258.6 18.15 258.48 18.23 258.36 18.25L258.21 18.13C258.21 18.07 258.27 17.97 258.39 17.83C258.51 17.67 258.64 17.51 258.78 17.35C258.92 17.19 259.05 17.04 259.17 16.9C259.31 16.76 259.4 16.66 259.44 16.6C259.74 16.26 260.09 15.91 260.49 15.55C260.91 15.17 261.35 14.83 261.81 14.53C262.27 14.23 262.75 13.98 263.25 13.78C263.75 13.58 264.24 13.48 264.72 13.48C265.36 13.48 265.86 13.68 266.22 14.08C266.6 14.48 266.79 15 266.79 15.64C266.79 16.34 266.61 16.99 266.25 17.59C265.91 18.19 265.54 18.75 265.14 19.27C265.22 19.29 265.3 19.31 265.38 19.33C265.46 19.35 265.54 19.36 265.62 19.36C266.24 19.36 266.78 19.18 267.24 18.82C267.7 18.44 268.12 18.03 268.5 17.59C268.6 17.47 268.69 17.45 268.77 17.53C268.87 17.61 268.89 17.71 268.83 17.83ZM285.027 17.41C284.967 17.63 284.727 18 284.307 18.52C283.887 19.02 283.407 19.54 282.867 20.08C282.327 20.6 281.777 21.06 281.217 21.46C280.657 21.86 280.197 22.06 279.837 22.06C279.437 22.06 279.137 21.91 278.937 21.61C278.757 21.31 278.667 20.99 278.667 20.65C278.667 20.11 278.797 19.55 279.057 18.97C279.317 18.39 279.587 17.87 279.867 17.41C279.627 17.71 279.297 18.12 278.877 18.64C278.477 19.16 278.027 19.68 277.527 20.2C277.027 20.7 276.527 21.14 276.027 21.52C275.527 21.88 275.067 22.06 274.647 22.06C274.307 22.06 274.017 21.94 273.777 21.7C273.557 21.44 273.447 21.14 273.447 20.8C273.447 20.22 273.567 19.64 273.807 19.06C274.067 18.46 274.367 17.93 274.707 17.47C274.467 17.75 274.127 18.15 273.687 18.67C273.247 19.17 272.767 19.68 272.247 20.2C271.727 20.7 271.217 21.14 270.717 21.52C270.217 21.88 269.787 22.06 269.427 22.06C269.007 22.06 268.677 21.93 268.437 21.67C268.217 21.39 268.107 21.04 268.107 20.62C268.107 20.2 268.197 19.8 268.377 19.42C268.577 19.02 268.937 18.82 269.457 18.82C269.617 18.82 269.797 18.86 269.997 18.94C270.097 19.04 270.157 19.14 270.177 19.24C270.217 19.34 270.257 19.46 270.297 19.6L270.177 20.02C270.057 20.14 269.947 20.23 269.847 20.29C269.747 20.33 269.647 20.39 269.547 20.47C269.467 20.53 269.397 20.62 269.337 20.74C269.297 20.84 269.277 21 269.277 21.22C269.277 21.26 269.287 21.31 269.307 21.37C269.327 21.41 269.347 21.45 269.367 21.49L269.607 21.58C269.847 21.58 270.177 21.41 270.597 21.07C271.017 20.73 271.477 20.31 271.977 19.81C272.477 19.29 272.997 18.72 273.537 18.1C274.077 17.46 274.587 16.85 275.067 16.27C275.547 15.69 275.967 15.17 276.327 14.71C276.687 14.25 276.937 13.93 277.077 13.75L279.177 13.54C279.157 13.56 279.027 13.75 278.787 14.11C278.547 14.45 278.247 14.88 277.887 15.4C277.527 15.9 277.137 16.46 276.717 17.08C276.317 17.7 275.937 18.29 275.577 18.85C275.217 19.41 274.917 19.91 274.677 20.35C274.457 20.79 274.347 21.08 274.347 21.22C274.347 21.26 274.357 21.31 274.377 21.37C274.397 21.41 274.417 21.45 274.437 21.49C274.517 21.55 274.627 21.58 274.767 21.58C274.987 21.58 275.307 21.41 275.727 21.07C276.167 20.73 276.637 20.3 277.137 19.78C277.657 19.26 278.187 18.69 278.727 18.07C279.267 17.45 279.777 16.85 280.257 16.27C280.737 15.69 281.157 15.17 281.517 14.71C281.897 14.25 282.157 13.93 282.297 13.75L284.427 13.54C284.427 13.54 284.297 13.72 284.037 14.08C283.797 14.42 283.497 14.85 283.137 15.37C282.777 15.89 282.387 16.46 281.967 17.08C281.547 17.7 281.157 18.3 280.797 18.88C280.437 19.44 280.137 19.94 279.897 20.38C279.657 20.8 279.537 21.07 279.537 21.19C279.537 21.23 279.547 21.28 279.567 21.34C279.587 21.38 279.607 21.42 279.627 21.46C279.747 21.54 279.857 21.58 279.957 21.58C280.197 21.58 280.477 21.48 280.797 21.28C281.117 21.08 281.437 20.83 281.757 20.53C282.097 20.21 282.437 19.87 282.777 19.51C283.117 19.13 283.427 18.78 283.707 18.46C283.987 18.14 284.227 17.87 284.427 17.65C284.647 17.43 284.797 17.31 284.877 17.29L284.997 17.32L285.027 17.41ZM286.625 20.77C286.625 21.07 286.505 21.38 286.265 21.7C286.045 22 285.765 22.15 285.425 22.15C285.185 22.15 284.975 22.07 284.795 21.91C284.635 21.73 284.555 21.52 284.555 21.28C284.555 20.96 284.675 20.65 284.915 20.35C285.155 20.05 285.445 19.9 285.785 19.9C286.025 19.9 286.225 19.99 286.385 20.17C286.545 20.33 286.625 20.53 286.625 20.77ZM287.555 18.22C287.475 18.34 287.365 18.5 287.225 18.7C287.105 18.88 286.965 18.97 286.805 18.97C286.765 18.97 286.705 18.94 286.625 18.88C286.565 18.82 286.535 18.77 286.535 18.73C286.535 18.61 286.665 18.27 286.925 17.71C287.205 17.13 287.545 16.46 287.945 15.7C288.365 14.92 288.815 14.08 289.295 13.18C289.775 12.28 290.235 11.44 290.675 10.66C291.115 9.86 291.495 9.17 291.815 8.59C292.155 7.99 292.375 7.6 292.475 7.42L295.055 7.18L287.555 18.22Z" fill="#CC8500"/>
</svg>
