<svg width="22" height="22" viewBox="0 0 22 22" fill="none" xmlns="http://www.w3.org/2000/svg">
<path d="M11 4.58337C8.12167 4.58337 5.75299 6.80629 5.51969 9.62504H5.27083C3.12263 9.62504 1.375 11.3727 1.375 13.5209C1.375 15.6691 3.12263 17.4167 5.27083 17.4167H7.62427C7.43681 17.1495 7.33333 16.8332 7.33333 16.5C7.33333 16.3415 7.36363 16.1893 7.40763 16.0417H5.27083C3.88071 16.0417 2.75 14.911 2.75 13.5209C2.75 12.1307 3.88071 11 5.27083 11H6.1875C6.56746 11 6.875 10.6925 6.875 10.3125V10.0834C6.875 7.80912 8.72575 5.95837 11 5.95837C13.2743 5.95837 15.125 7.80912 15.125 10.0834V10.3125C15.125 10.6925 15.4325 11 15.8125 11H16.7292C18.1193 11 19.25 12.1307 19.25 13.5209C19.25 14.911 18.1193 16.0417 16.7292 16.0417H14.5924C14.6364 16.1893 14.6667 16.3415 14.6667 16.5C14.6667 16.8332 14.5632 17.1495 14.3757 17.4167H16.7292C18.8774 17.4167 20.625 15.6691 20.625 13.5209C20.625 11.3727 18.8774 9.62504 16.7292 9.62504H16.4803C16.247 6.80629 13.8783 4.58337 11 4.58337ZM10.9893 10.9902C10.8071 10.993 10.6335 11.0681 10.5066 11.1988C10.3797 11.3296 10.3099 11.5054 10.3125 11.6875V16.9029L9.42358 16.014C9.36023 15.948 9.28436 15.8953 9.20039 15.859C9.11643 15.8227 9.02607 15.8036 8.93461 15.8026C8.84314 15.8017 8.75241 15.819 8.66773 15.8536C8.58304 15.8882 8.50611 15.9393 8.44143 16.004C8.37675 16.0686 8.32563 16.1456 8.29106 16.2303C8.25648 16.3149 8.23915 16.4057 8.24008 16.4971C8.24101 16.5886 8.26018 16.679 8.29647 16.7629C8.33276 16.8469 8.38544 16.9228 8.45142 16.9861L10.4548 18.9895C10.5193 19.0736 10.6022 19.1416 10.6973 19.1882C10.7923 19.2349 10.8968 19.259 11.0027 19.2587C11.1086 19.2583 11.2129 19.2335 11.3076 19.1862C11.4024 19.1389 11.4849 19.0704 11.5487 18.986L13.5486 16.9861C13.6146 16.9228 13.6672 16.8469 13.7035 16.7629C13.7398 16.679 13.759 16.5886 13.7599 16.4971C13.7608 16.4057 13.7435 16.3149 13.7089 16.2303C13.6744 16.1456 13.6232 16.0686 13.5586 16.004C13.4939 15.9393 13.417 15.8882 13.3323 15.8536C13.2476 15.819 13.1569 15.8017 13.0654 15.8026C12.9739 15.8036 12.8836 15.8227 12.7996 15.859C12.7156 15.8953 12.6398 15.948 12.5764 16.014L11.6875 16.9029V11.6875C11.6888 11.5955 11.6717 11.5042 11.637 11.4189C11.6024 11.3337 11.551 11.2562 11.4859 11.1912C11.4208 11.1262 11.3433 11.0749 11.2579 11.0403C11.1726 11.0058 11.0813 10.9888 10.9893 10.9902Z" fill="#E09508"/>
</svg>
