<svg width="26" height="26" viewBox="0 0 26 26" fill="none" xmlns="http://www.w3.org/2000/svg">
<path d="M20.2972 24.44C20.289 24.44 20.2809 24.44 20.2728 24.44C16.3647 24.3121 11.7862 20.5238 8.63169 17.3672C5.4731 14.2107 1.68482 9.63019 1.56294 5.74034C1.51826 4.37534 4.86779 1.948 4.90232 1.92362C5.77169 1.31831 6.73654 1.53362 7.13263 2.08206C7.40076 2.45378 9.93982 6.30097 10.2161 6.73769C10.5025 7.19066 10.4598 7.86503 10.1023 8.54144C9.90529 8.91722 9.25123 10.0669 8.94451 10.6032C9.2756 11.0744 10.1511 12.2302 11.9589 14.038C13.7687 15.8458 14.9225 16.7233 15.3958 17.0544C15.932 16.7477 17.0817 16.0936 17.4575 15.8966C18.1237 15.5432 18.794 15.4985 19.2511 15.7788C19.7183 16.0652 23.5553 18.6164 23.9087 18.8622C24.2053 19.0714 24.3962 19.4289 24.4348 19.8453C24.4714 20.2658 24.3414 20.7107 24.0712 21.0986C24.0489 21.1311 21.65 24.44 20.2972 24.44Z" fill="#E09508"/>
</svg>
