<svg width="24" height="24" viewBox="0 0 24 24" fill="none" xmlns="http://www.w3.org/2000/svg">
<path d="M19.8504 21.6L13.1451 14.9C12.6486 15.282 12.0799 15.5817 11.4389 15.799C10.7979 16.0163 10.0971 16.125 9.33634 16.125C7.41449 16.125 5.79887 15.4691 4.48947 14.1574C3.18008 12.8457 2.52539 11.2499 2.52539 9.36992C2.52539 7.48997 3.18125 5.89583 4.49297 4.5875C5.80468 3.27917 7.40052 2.625 9.28047 2.625C11.1604 2.625 12.7546 3.28037 14.0629 4.5911C15.3712 5.90183 16.0254 7.49772 16.0254 9.37875C16.0254 10.1429 15.9171 10.8375 15.7004 11.4625C15.4837 12.0875 15.1671 12.6833 14.7504 13.25L21.5004 19.95L19.8504 21.6ZM9.28642 13.85C10.5528 13.85 11.6134 13.4205 12.4682 12.5615C13.323 11.7024 13.7504 10.6437 13.7504 9.3853C13.7504 8.12688 13.3225 7.06472 12.4667 6.19882C11.611 5.33294 10.5516 4.9 9.28862 4.9C8.01175 4.9 6.94449 5.33294 6.08684 6.19882C5.22921 7.06472 4.80039 8.12688 4.80039 9.3853C4.80039 10.6437 5.22798 11.7024 6.08317 12.5615C6.93837 13.4205 8.00612 13.85 9.28642 13.85Z" fill="#324064"/>
</svg>
