<svg width="38" height="38" viewBox="0 0 38 38" fill="none" xmlns="http://www.w3.org/2000/svg">
<path d="M32.3246 5.02877C31.808 4.97398 31.2464 5.05466 30.6822 5.27771C29.9827 5.55283 19.0227 10.1633 8.80596 14.4641L5.43011 15.8849C4.12291 16.415 3.46289 17.277 3.46289 18.4381C3.46289 19.251 3.80694 20.3536 5.44833 21.0033L11.1466 23.2863C11.6393 24.7645 12.7838 28.1966 13.0713 29.109C13.2423 29.6499 13.6742 31.0126 14.7653 31.3313C14.9891 31.4074 15.2227 31.4466 15.4605 31.4466C16.1491 31.4466 16.6449 31.1262 16.8874 30.9396L20.5091 27.8765L24.908 31.9445C25.0775 32.117 25.9742 32.9888 27.1788 32.9888C28.6819 32.9888 29.822 31.7376 30.0598 30.5268C30.1889 29.863 34.4314 8.56545 34.4314 8.56855C34.8123 6.86033 34.1275 5.97418 33.6877 5.59647C33.3107 5.27394 32.8412 5.08356 32.3246 5.02877ZM31.2954 8.3864C30.7094 11.3241 27.515 27.3593 27.0301 29.6706L20.6002 23.7234L16.2377 27.4181L17.4459 22.6913C17.4459 22.6913 25.7812 14.254 26.2833 13.7629C26.6874 13.3696 26.772 13.2318 26.772 13.095C26.772 12.9131 26.6784 12.7823 26.4624 12.7823C26.2681 12.7823 26.0042 12.9685 25.8643 13.0555C24.0872 14.1635 16.5197 18.4747 12.795 20.5935L7.39126 18.435L10.0142 17.333C16.6964 14.5196 28.5971 9.50864 31.2954 8.3864Z" fill="#324064"/>
</svg>
