<svg width="38" height="38" viewBox="0 0 38 38" fill="none" xmlns="http://www.w3.org/2000/svg">
<path d="M35.9141 27.7058C34.5175 25.1924 30.92 22.1723 29.4348 20.8581C29.0283 20.4983 28.9848 19.8758 29.3548 19.4779C32.1891 16.4321 34.4561 12.9325 35.2364 10.8178C35.5807 9.88365 34.868 8.89664 33.8639 8.89664H30.9472C29.9858 8.89664 29.4231 9.24171 29.155 9.79117C26.7994 14.6182 24.7787 16.7072 23.3643 17.9282C22.5724 18.6121 21.3374 18.0455 21.3374 17.0049C21.3374 14.9998 21.3374 12.4079 21.3374 10.5699C21.3374 9.67848 20.6084 8.95726 19.7092 8.95726L14.3809 8.89664C13.7102 8.89664 13.3271 9.65594 13.7297 10.1883L14.6094 11.4512C14.9405 11.8888 15.1193 12.4211 15.1193 12.9675L15.1146 18.6548C15.1146 19.6442 13.9154 20.1276 13.2035 19.4343C10.7951 17.0888 8.70524 12.2991 7.95293 10.0088C7.73533 9.34585 7.11436 8.8982 6.41024 8.89664L3.53703 8.88965C2.45909 8.88965 1.67104 9.91163 1.96403 10.9406C4.58933 20.1556 9.97592 28.9221 19.5756 29.8726C20.5214 29.9658 21.3374 29.2042 21.3374 28.2615V25.2725C21.3374 24.4152 22.0097 23.6785 22.8739 23.6567C22.9042 23.656 22.9345 23.656 22.9648 23.656C25.5039 23.656 28.3475 27.3514 29.3423 29.0798C29.6283 29.5772 30.163 29.8803 30.7412 29.8803H34.6061C35.7338 29.8803 36.4573 28.6843 35.9141 27.7058Z" fill="#324064"/>
</svg>
