<svg width="38" height="38" viewBox="0 0 38 38" fill="none" xmlns="http://www.w3.org/2000/svg">
<path fill-rule="evenodd" clip-rule="evenodd" d="M28.9124 9.09546C26.2803 6.46339 22.7831 5.01074 19.0581 5.01074C11.3805 5.01074 5.12816 11.2585 5.12816 18.9361C5.12361 21.3906 5.76569 23.7859 6.9861 25.8988L5.00977 33.1165L12.396 31.1766C14.4269 32.2877 16.722 32.8706 19.0535 32.8752H19.0581C26.7357 32.8752 32.9835 26.6274 32.988 18.9452C32.988 15.2248 31.5399 11.7275 28.9124 9.09546ZM19.0581 30.5209H19.0535C16.977 30.5209 14.9369 29.9608 13.161 28.9088L12.7375 28.6584L8.35222 29.8059L9.52254 25.5345L9.24931 25.0974C8.0881 23.2531 7.4779 21.1219 7.4779 18.9361C7.4779 12.5563 12.6737 7.36503 19.0626 7.36503C22.1546 7.36503 25.0599 8.57178 27.2457 10.7576C29.4315 12.9479 30.6337 15.8532 30.6337 18.9452C30.6337 25.3296 25.4379 30.5209 19.0581 30.5209ZM25.406 21.8505C25.0599 21.6775 23.3477 20.835 23.029 20.7212C22.7102 20.6028 22.478 20.5482 22.2457 20.8942C22.0135 21.2449 21.3486 22.0281 21.1437 22.2604C20.9433 22.4881 20.7384 22.5199 20.3923 22.3469C20.0417 22.1738 18.9215 21.805 17.5918 20.6165C16.5581 19.6966 15.8568 18.5536 15.6564 18.2075C15.4515 17.8569 15.6337 17.6702 15.8067 17.4971C15.9661 17.3423 16.1574 17.0919 16.3304 16.8869C16.5034 16.6866 16.5626 16.5408 16.681 16.3086C16.7949 16.0764 16.7357 15.8714 16.6492 15.6984C16.5626 15.5254 15.8659 13.8086 15.5745 13.1119C15.2921 12.4334 15.0053 12.529 14.7912 12.5153C14.5909 12.5062 14.3586 12.5062 14.1264 12.5062C13.8941 12.5062 13.5162 12.5927 13.1974 12.9434C12.8787 13.2895 11.9816 14.1319 11.9816 15.8441C11.9816 17.5563 13.2293 19.2139 13.4023 19.4461C13.5754 19.6738 15.8568 23.1893 19.3495 24.6966C20.1783 25.0564 20.825 25.2704 21.3304 25.4298C22.1638 25.6939 22.9242 25.6575 23.5253 25.5709C24.1947 25.4708 25.5836 24.7285 25.8751 23.9134C26.1619 23.1028 26.1619 22.4061 26.0754 22.2604C25.9889 22.1146 25.7567 22.0281 25.406 21.8505Z" fill="#324064"/>
</svg>
